<?xml version="1.0" standalone="no"?>
<!DOCTYPE svg PUBLIC "-//W3C//DTD SVG 20010904//EN"
 "http://www.w3.org/TR/2001/REC-SVG-20010904/DTD/svg10.dtd">
<svg version="1.0" xmlns="http://www.w3.org/2000/svg"
 width="336.000000pt" height="119.000000pt" viewBox="0 0 336.000000 119.000000"
 preserveAspectRatio="xMidYMid meet">

<g transform="translate(0.000000,119.000000) scale(0.100000,-0.100000)"
fill="#000000" stroke="none">
<path d="M351 1079 c-106 -21 -195 -96 -227 -191 -39 -117 -1 -266 87 -341
101 -87 278 -90 391 -8 l37 27 -25 36 -26 36 -45 -31 c-41 -30 -51 -32 -128
-32 -78 0 -86 2 -121 31 -21 17 -49 50 -62 75 -20 37 -23 55 -20 115 3 58 8
78 31 111 60 86 172 112 272 64 28 -14 53 -25 58 -25 4 -1 16 12 27 29 15 22
16 32 8 43 -18 21 -80 50 -123 57 -77 12 -90 13 -134 4z"/>
<path d="M1900 1068 c-60 -17 -100 -68 -100 -128 0 -27 -3 -30 -30 -30 -28 0
-30 -2 -30 -40 0 -38 2 -40 30 -40 l30 0 0 -170 0 -170 50 0 50 0 0 170 0 170
85 0 85 0 0 -170 0 -170 50 0 50 0 0 210 0 210 -135 0 -135 0 0 24 c0 29 43
66 76 66 21 0 24 5 24 40 0 39 -1 40 -32 39 -18 0 -49 -5 -68 -11z"/>
<path d="M868 907 c-58 -17 -90 -37 -121 -79 -51 -68 -58 -159 -17 -238 62
-122 260 -150 363 -52 63 60 86 166 53 245 -41 98 -167 154 -278 124z m119
-86 c51 -24 73 -63 73 -132 0 -46 -4 -55 -39 -90 -33 -33 -45 -39 -82 -39
-149 0 -193 195 -59 262 44 22 55 22 107 -1z"/>
<path d="M1460 909 c-19 -6 -49 -24 -65 -40 -17 -16 -34 -29 -38 -29 -4 0 -7
16 -7 35 0 35 0 35 -45 35 l-45 0 0 -210 0 -210 50 0 50 0 0 123 c0 103 3 127
20 154 36 59 107 80 151 44 23 -18 24 -25 27 -173 l3 -153 45 3 44 4 0 167 c0
147 -2 170 -20 198 -10 17 -27 36 -37 41 -30 16 -96 21 -133 11z"/>
<path d="M2803 901 c-23 -11 -48 -29 -55 -40 -19 -30 -28 -26 -28 14 0 35 0
35 -45 35 l-44 0 -3 -209 -3 -209 48 -4 47 -3 0 115 c0 91 4 124 19 157 31 66
101 93 141 53 18 -18 20 -33 20 -170 l0 -150 50 0 50 0 0 120 c0 131 9 162 56
199 34 27 76 27 100 0 17 -19 19 -38 19 -169 l0 -148 48 -4 48 -3 -3 177 c-3
161 -5 179 -24 205 -48 65 -160 64 -224 -2 l-33 -35 -18 30 c-33 54 -101 71
-166 41z"/>
<path d="M2290 700 l0 -210 50 0 50 0 0 105 c0 67 5 118 14 139 17 41 58 74
102 82 33 6 34 8 34 51 l0 46 -37 -6 c-27 -4 -48 -17 -74 -47 -20 -22 -38 -40
-40 -40 -2 0 -3 20 -1 45 l4 45 -51 0 -51 0 0 -210z"/>
<path d="M140 330 c-11 -11 -20 -26 -20 -34 0 -21 31 -55 70 -74 45 -22 48
-55 7 -60 -16 -2 -35 2 -43 9 -13 10 -17 10 -24 -2 -13 -20 9 -38 52 -46 30
-4 41 -1 62 20 14 15 26 35 26 46 0 20 -53 71 -75 71 -7 0 -18 7 -25 16 -11
12 -10 18 3 32 14 13 22 14 46 5 25 -9 31 -8 36 5 13 36 -81 46 -115 12z"/>
<path d="M1106 273 c-10 -125 -9 -145 12 -141 14 3 18 17 22 73 l6 70 24 -52
c32 -70 53 -70 84 -1 l23 52 6 -40 c4 -21 7 -54 7 -71 0 -27 4 -33 21 -33 20
0 21 3 15 73 -12 135 -16 148 -38 145 -14 -2 -27 -21 -45 -65 -14 -35 -28 -63
-32 -63 -3 0 -17 29 -29 65 -20 54 -28 65 -46 65 -21 0 -24 -6 -30 -77z"/>
<path d="M1974 342 c-20 -14 -45 -75 -34 -86 5 -5 10 -36 10 -68 0 -51 2 -58
20 -58 18 0 20 7 20 60 0 47 3 60 15 60 8 0 15 9 15 20 0 11 -7 20 -15 20 -21
0 -19 17 5 30 11 6 20 15 20 20 0 12 -40 13 -56 2z"/>
<path d="M2840 335 c0 -8 9 -15 20 -15 11 0 20 7 20 15 0 8 -9 15 -20 15 -11
0 -20 -7 -20 -15z"/>
<path d="M900 312 c0 -10 -5 -23 -12 -30 -9 -9 -9 -15 0 -24 7 -7 12 -29 12
-49 0 -21 8 -46 18 -57 23 -27 55 -32 60 -10 2 11 -3 18 -11 18 -18 0 -27 21
-27 61 0 22 5 29 20 29 12 0 20 7 20 16 0 9 -9 18 -20 21 -11 3 -20 14 -20 24
0 12 -7 19 -20 19 -13 0 -20 -7 -20 -18z"/>
<path d="M2410 314 c0 -9 -8 -23 -17 -30 -17 -13 -17 -15 0 -28 12 -9 17 -27
17 -58 0 -47 9 -61 48 -71 29 -7 31 23 2 41 -14 8 -20 23 -20 47 0 28 4 35 20
35 13 0 20 7 20 20 0 13 -7 20 -20 20 -13 0 -20 7 -20 20 0 11 -7 20 -15 20
-8 0 -15 -7 -15 -16z"/>
<path d="M310 210 c0 -61 3 -80 14 -80 9 0 15 17 18 52 4 34 12 56 24 65 30
22 39 10 42 -55 3 -54 6 -62 22 -62 17 0 20 7 20 48 0 36 5 54 20 67 31 28 50
5 50 -62 0 -47 3 -54 18 -51 14 3 17 14 15 66 -1 35 -7 70 -14 78 -15 18 -49
18 -76 -1 -18 -13 -22 -13 -33 0 -15 18 -51 19 -69 3 -11 -10 -14 -10 -18 0
-3 6 -11 12 -19 12 -11 0 -14 -18 -14 -80z"/>
<path d="M611 281 c-23 -15 -3 -31 30 -24 21 4 34 1 39 -8 6 -9 -4 -17 -38
-28 -42 -14 -47 -20 -50 -48 -3 -27 1 -35 23 -45 19 -9 31 -9 44 -1 10 6 30 9
45 6 l29 -6 -5 68 c-3 51 -9 71 -23 81 -21 16 -73 18 -94 5z m79 -90 c0 -12
-28 -41 -39 -41 -18 0 -31 26 -19 38 14 14 58 16 58 3z"/>
<path d="M770 210 c0 -73 2 -80 20 -80 17 0 20 7 20 41 0 46 14 79 34 79 17 0
29 27 15 36 -5 3 -17 0 -25 -7 -11 -9 -18 -9 -26 -1 -29 29 -38 13 -38 -68z"/>
<path d="M1393 283 c-7 -2 -13 -11 -13 -19 0 -9 11 -13 36 -11 51 3 53 -17 4
-32 -46 -14 -66 -41 -50 -71 12 -23 53 -36 72 -23 7 4 24 8 38 8 16 0 26 6 28
19 6 31 -8 105 -24 121 -15 14 -65 19 -91 8z m70 -90 c9 -8 -22 -43 -39 -43
-20 0 -27 19 -14 35 13 16 42 20 53 8z"/>
<path d="M1550 210 c0 -73 2 -80 20 -80 17 0 20 7 20 49 0 53 20 84 49 79 12
-2 17 -17 19 -66 3 -54 6 -62 22 -62 18 0 20 7 20 64 0 88 -32 117 -93 85 -16
-9 -22 -9 -25 0 -2 6 -10 11 -18 11 -11 0 -14 -18 -14 -80z"/>
<path d="M1743 275 c-3 -9 -3 -41 -1 -72 6 -64 27 -88 68 -78 14 4 37 7 53 6
l27 0 0 80 c0 71 -2 80 -17 77 -14 -3 -18 -14 -19 -50 0 -53 -18 -80 -48 -76
-18 3 -21 11 -24 66 -2 47 -7 62 -18 62 -8 0 -17 -7 -21 -15z"/>
<path d="M2064 275 c-20 -15 -18 -17 35 -19 51 -2 49 -22 -3 -35 -36 -9 -47
-17 -52 -37 -9 -35 22 -68 56 -59 14 3 37 6 53 5 26 0 27 1 27 58 0 72 -18
102 -64 102 -18 0 -41 -7 -52 -15z m74 -91 c-5 -25 -35 -41 -49 -27 -18 18 -3
43 26 43 19 0 26 -5 23 -16z"/>
<path d="M2239 261 c-16 -17 -29 -40 -29 -54 0 -33 34 -74 68 -82 36 -7 82 10
82 30 0 16 -10 15 -57 -2 -16 -6 -53 33 -53 55 0 31 34 55 68 47 36 -7 51 9
23 24 -35 19 -71 12 -102 -18z"/>
<path d="M2520 222 c0 -57 4 -72 21 -87 16 -16 25 -17 49 -8 15 6 40 8 55 6
l26 -6 -3 79 c-2 62 -6 79 -18 79 -11 0 -17 -15 -20 -50 -7 -62 -15 -75 -45
-75 -26 0 -39 35 -33 92 2 25 -1 34 -14 36 -16 3 -18 -5 -18 -66z"/>
<path d="M2720 210 c0 -64 3 -80 15 -80 11 0 15 11 15 38 0 41 23 82 46 82 8
0 14 9 14 21 0 15 -4 19 -15 15 -8 -3 -22 -9 -30 -12 -8 -3 -15 -1 -15 5 0 6
-7 11 -15 11 -12 0 -15 -16 -15 -80z"/>
<path d="M2840 210 c0 -73 2 -80 20 -80 18 0 20 7 20 80 0 73 -2 80 -20 80
-18 0 -20 -7 -20 -80z"/>
<path d="M2930 210 c0 -64 3 -80 15 -80 9 0 15 9 15 24 0 72 27 114 64 100 12
-5 16 -21 16 -65 0 -52 2 -59 20 -59 18 0 20 7 20 64 0 88 -32 117 -93 85 -16
-9 -22 -9 -25 0 -2 6 -10 11 -18 11 -11 0 -14 -18 -14 -80z"/>
<path d="M3138 270 c-17 -13 -23 -28 -23 -60 0 -54 33 -85 82 -77 23 4 33 2
33 -7 0 -23 -29 -39 -60 -33 -32 7 -51 -10 -29 -24 28 -17 79 -10 104 16 23
22 25 32 25 112 l0 89 -55 1 c-39 1 -61 -4 -77 -17z m80 -22 c17 -17 15 -63
-3 -78 -20 -17 -54 -3 -61 25 -12 47 33 84 64 53z"/>
</g>
</svg>
