<svg id="svg" version="1.1" xmlns="http://www.w3.org/2000/svg" style="display: block;" viewBox="0 0 810 352"><path d="M0 0 C267.3 0 534.6 0 810 0 C810 116.16 810 232.32 810 352 C542.7 352 275.4 352 0 352 C0 235.84 0 119.68 0 0 Z " transform="translate(0,0)" style="fill: #FEFDFD;"/><path d="M0 0 C17.49 0 34.98 0 53 0 C53 5.94 53 11.88 53 18 C47.72 18 42.44 18 37 18 C37.0687654 24.35415082 37.15667787 30.70763655 37.26245117 37.0612793 C37.29573322 39.22331375 37.32375485 41.38543577 37.34643555 43.54760742 C37.37992108 46.65321218 37.432234 49.75801198 37.48828125 52.86328125 C37.49786613 54.31653557 37.49786613 54.31653557 37.50764465 55.79914856 C37.52743881 56.6998558 37.54723297 57.60056305 37.56762695 58.52856445 C37.57873001 59.32132278 37.58983307 60.11408112 37.60127258 60.93086243 C38.09704858 63.50361942 39.08191135 64.28061698 41 66 C45.88339215 77.05704509 46.95489324 89.29736581 43 100.80078125 C41.42468948 104.26523369 39.38238622 107.03811443 37 110 C38.32 110 39.64 110 41 110 C41 110.99 41 111.98 41 113 C39.39125 113.0928125 39.39125 113.0928125 37.75 113.1875 C33.12487907 114.18960953 32.83227461 115.35850407 30 119 C18.88927858 127.19441377 7.51157032 129.20252976 -6 128 C-15.37179093 125.94702105 -24.98114303 120.57211038 -31 113 C-31.3125 110.1875 -31.3125 110.1875 -31 108 C-32.485 108.495 -32.485 108.495 -34 109 C-34.81832722 107.10667466 -35.62942268 105.21022267 -36.4375 103.3125 C-36.88996094 102.25675781 -37.34242188 101.20101562 -37.80859375 100.11328125 C-39.73907996 95.06869925 -40.13729347 90.70318671 -40.125 85.3125 C-40.12886719 83.60513672 -40.12886719 83.60513672 -40.1328125 81.86328125 C-40 79 -40 79 -39 77 C-44.28 77 -49.56 77 -55 77 C-55.14622803 75.90010742 -55.29245605 74.80021484 -55.44311523 73.66699219 C-55.98687676 69.58155944 -56.53363718 65.49653269 -57.08129883 61.41162109 C-57.31779325 59.64447768 -57.55347714 57.8772256 -57.78833008 56.10986328 C-58.12627922 53.56774267 -58.46715299 51.02602869 -58.80859375 48.484375 C-58.91280136 47.69569031 -59.01700897 46.90700562 -59.12437439 46.09442139 C-59.58699547 42.66983767 -60.11858652 39.34046524 -61 36 C-63.26176438 41.35625029 -65.52206477 46.71311504 -67.78100586 52.07055664 C-68.5498083 53.89331794 -69.31901176 55.71591015 -70.08862305 57.53833008 C-71.19425028 60.15662075 -72.29843779 62.77551448 -73.40234375 65.39453125 C-73.74716293 66.21025101 -74.09198212 67.02597076 -74.44725037 67.8664093 C-74.76750687 68.62697128 -75.08776337 69.38753326 -75.41772461 70.17114258 C-75.69974228 70.83954666 -75.98175995 71.50795074 -76.27232361 72.1966095 C-76.90902751 73.77454413 -77.46192291 75.38576873 -78 77 C-80.97 77 -83.94 77 -87 77 C-89.28524488 71.36096072 -91.56372505 65.71925442 -93.8359375 60.07495117 C-94.61011692 58.15460301 -95.38615035 56.23500121 -96.1640625 54.31616211 C-97.28091105 51.5603668 -98.39109793 48.80196956 -99.5 46.04296875 C-99.84998047 45.18350143 -100.19996094 44.32403412 -100.56054688 43.43852234 C-100.88087891 42.63791885 -101.20121094 41.83731537 -101.53125 41.01245117 C-101.81548828 40.3085173 -102.09972656 39.60458344 -102.39257812 38.87931824 C-103 37 -103 37 -103 34 C-103.66 34 -104.32 34 -105 34 C-104.92265625 35.94519531 -104.92265625 35.94519531 -104.84375 37.9296875 C-104.84375 45.75356491 -106.26639691 53.42201804 -107.5 61.125 C-107.74157938 62.66916242 -107.98247023 64.21343273 -108.22265625 65.7578125 C-108.80591561 69.50676232 -109.40322094 73.25308004 -110 77 C-116.6 77 -123.2 77 -130 77 C-130 72.00304038 -129.81616361 68.06493752 -128.9765625 63.25390625 C-128.65171875 61.37928711 -128.65171875 61.37928711 -128.3203125 59.46679688 C-127.97613281 57.53416992 -127.97613281 57.53416992 -127.625 55.5625 C-127.40328125 54.27794922 -127.1815625 52.99339844 -126.953125 51.66992188 C-125.21876073 41.76874234 -125.21876073 41.76874234 -124 37.05639648 C-122.99964137 33.1400045 -122.32342211 29.21601796 -121.7109375 25.21875 C-121.54871201 24.17031921 -121.54871201 24.17031921 -121.38320923 23.10070801 C-121.04365134 20.90099157 -120.70923343 18.70053106 -120.375 16.5 C-120.14357099 14.99473907 -119.91180309 13.48953021 -119.6796875 11.984375 C-119.11524871 8.32358628 -118.5577907 4.66183207 -118 1 C-111.07 1 -104.14 1 -97 1 C-96.00097656 3.65933594 -95.00195312 6.31867188 -93.97265625 9.05859375 C-93.00691851 11.62370016 -92.04024862 14.18845342 -91.07348633 16.75317383 C-90.40030828 18.54056639 -89.7281052 20.32832645 -89.05688477 22.11645508 C-88.09385051 24.68146662 -87.12735737 27.24515102 -86.16015625 29.80859375 C-85.85908463 30.6127623 -85.558013 31.41693085 -85.24781799 32.24546814 C-84.08790065 35.89608405 -84.08790065 35.89608405 -82 39 C-74.575 20.19 -74.575 20.19 -67 1 C-60.07 1 -53.14 1 -46 1 C-45.58105469 3.84109375 -45.16210938 6.6821875 -44.73046875 9.609375 C-43.05554854 20.84515716 -41.19681402 32.04776783 -39.3125 43.25 C-38.98877727 45.1822657 -38.66520893 47.11455728 -38.34179688 49.046875 C-37.56296654 53.69821503 -36.78208559 58.34920626 -36 63 C-35.34 63 -34.68 63 -34 63 C-32.30911778 61.02043058 -30.64169528 59.02054804 -29 57 C-28.67 57 -28.34 57 -28 57 C-27.67 38.52 -27.34 20.04 -27 1 C-20.07 1 -13.14 1 -6 1 C-5.67 15.19 -5.34 29.38 -5 44 C-2.525 43.505 -2.525 43.505 0 43 C6.03735496 42.70786992 8.80442601 43.229836 15 45 C15.33 36.09 15.66 27.18 16 18 C10.72 18 5.44 18 0 18 C0 12.06 0 6.12 0 0 Z " transform="translate(716,160)" style="fill: #FDEFE7;"/><path d="M0 0 C1.0219043 -0.00483398 1.0219043 -0.00483398 2.06445312 -0.00976562 C6.64176146 0.03860171 9.42262614 0.80754205 13.9375 2.3125 C13.9375 8.2525 13.9375 14.1925 13.9375 20.3125 C12.4525 19.4875 10.9675 18.6625 9.4375 17.8125 C4.48183397 15.35566557 1.42118614 14.48994708 -4.0625 15.3125 C-8.55350008 17.60036796 -10.82765952 19.84281903 -13.0625 24.3125 C-13.81434196 28.96765482 -14.1936276 34.04591098 -12.04296875 38.35546875 C-9.47301561 41.49997334 -6.66978811 44.09550349 -2.57421875 44.6484375 C3.67991693 44.73494007 7.12880271 44.3813977 11.9375 40.3125 C12.5975 39.9825 13.2575 39.6525 13.9375 39.3125 C13.9375 43.9325 13.9375 48.5525 13.9375 53.3125 C16.2475 53.3125 18.5575 53.3125 20.9375 53.3125 C21.2675 36.1525 21.5975 18.9925 21.9375 1.3125 C27.2175 1.3125 32.4975 1.3125 37.9375 1.3125 C37.9375 20.4525 37.9375 39.5925 37.9375 59.3125 C36.2875 59.6425 34.6375 59.9725 32.9375 60.3125 C33.576875 61.26125 34.21625 62.21 34.875 63.1875 C37.53660381 67.76771575 37.6509898 72.08368884 37.9375 77.3125 C43.8775 77.6425 49.8175 77.9725 55.9375 78.3125 C55.98712847 85.553294 56.02332782 92.79398783 56.04736328 100.03491211 C56.05738885 102.49554165 56.07101274 104.95615937 56.08837891 107.41674805 C56.11277878 110.96405972 56.12401787 114.51121314 56.1328125 118.05859375 C56.14313507 119.1495787 56.15345764 120.24056366 56.16409302 121.36460876 C56.1654911 130.99351794 55.38322255 141.73803696 48.28515625 149.00390625 C38.68708092 156.83546465 27.92102222 158.42067919 15.91894531 157.54443359 C8.65943161 156.69468766 1.16538171 153.51181405 -4.0625 148.3125 C-5.69028974 146.03973696 -6.81879361 143.84597598 -8.0625 141.3125 C-8.454375 140.631875 -8.84625 139.95125 -9.25 139.25 C-11.04864778 134.96091684 -11.18702193 130.36266833 -11.17602539 125.76611328 C-11.17594986 124.70546661 -11.17587433 123.64481995 -11.17579651 122.55203247 C-11.17063522 121.42368988 -11.16547394 120.29534729 -11.16015625 119.1328125 C-11.1587413 117.9649118 -11.15732635 116.79701111 -11.15586853 115.59371948 C-11.15028498 111.87495326 -11.13773544 108.15624793 -11.125 104.4375 C-11.11998288 101.9114592 -11.11542034 99.38541746 -11.11132812 96.859375 C-11.10032093 90.67706267 -11.08359913 84.49478569 -11.0625 78.3125 C-8.5875 77.8175 -8.5875 77.8175 -6.0625 77.3125 C-6.02511719 76.66023438 -5.98773438 76.00796875 -5.94921875 75.3359375 C-5.88347656 74.46195312 -5.81773437 73.58796875 -5.75 72.6875 C-5.69199219 71.82898438 -5.63398438 70.97046875 -5.57421875 70.0859375 C-4.96485442 66.78327588 -3.66693959 64.2460866 -2.0625 61.3125 C-3.29613281 60.92771484 -3.29613281 60.92771484 -4.5546875 60.53515625 C-14.2277811 57.2177096 -22.17122475 52.48331808 -27.625 43.5625 C-30.86076545 36.24685638 -31.50793877 27.78673986 -29.0390625 20.14453125 C-25.20252123 11.782567 -19.97714537 5.85173344 -11.78125 1.6171875 C-7.73654418 0.19814155 -4.22662222 -0.10053811 0 0 Z " transform="translate(423.0625,81.6875)" style="fill: #FDEBE3;"/><path d="M0 0 C10.14064947 7.1692837 16.20367705 17.3864079 18.48046875 29.49609375 C19.82463677 41.29956919 17.06342158 51.82545314 10.11328125 61.46484375 C5.57011904 67.11662449 1.01463414 71.2930715 -5.51953125 74.49609375 C-6.17953125 74.49609375 -6.83953125 74.49609375 -7.51953125 74.49609375 C-6.52953125 75.98109375 -6.52953125 75.98109375 -5.51953125 77.49609375 C-5.76294701 81.99928524 -7.93372854 84.90933515 -10.51953125 88.49609375 C-11.36515625 88.16609375 -12.21078125 87.83609375 -13.08203125 87.49609375 C-17.26220013 86.28004462 -21.4970485 85.48485237 -25.51953125 87.49609375 C-25.51953125 89.14609375 -25.51953125 90.79609375 -25.51953125 92.49609375 C-24.70162109 92.85960938 -24.70162109 92.85960938 -23.8671875 93.23046875 C-22.27838692 93.93660234 -20.69126388 94.64651757 -19.10546875 95.359375 C-17.43537706 96.09350896 -15.75336231 96.80134518 -14.05859375 97.4765625 C-8.50668176 99.73606157 -5.28048295 101.97419035 -2.51953125 107.49609375 C-1.78627963 114.63628161 -2.20725857 120.59288552 -6.51953125 126.49609375 C-9.01953125 128.87109375 -9.01953125 128.87109375 -11.51953125 130.49609375 C-12.06351563 130.851875 -12.6075 131.20765625 -13.16796875 131.57421875 C-16.60928869 132.92330763 -19.99959307 132.87786355 -23.64453125 132.87109375 C-24.40064697 132.87165771 -25.1567627 132.87222168 -25.93579102 132.87280273 C-32.09815419 132.75220467 -37.07613975 131.4619679 -42.51953125 128.49609375 C-43.17953125 128.16609375 -43.83953125 127.83609375 -44.51953125 127.49609375 C-43.1066103 122.66861385 -41.08978971 118.77985785 -38.51953125 114.49609375 C-37.95105469 114.85703125 -37.38257813 115.21796875 -36.796875 115.58984375 C-31.88443326 118.54222943 -28.42269832 120.32253714 -22.51953125 119.49609375 C-21.52953125 118.83609375 -20.53953125 118.17609375 -19.51953125 117.49609375 C-19.26922148 114.91229198 -19.26922148 114.91229198 -19.51953125 112.49609375 C-23.72949891 110.27629262 -27.62237347 108.40572101 -32.20703125 107.12109375 C-36.92378151 105.63845377 -38.7951354 103.58268753 -41.51953125 99.49609375 C-43.19800529 94.46067164 -43.71899107 89.03341261 -41.40234375 84.1328125 C-40.51281656 82.7583171 -39.58521643 81.40735588 -38.61328125 80.08984375 C-37.33091708 78.5434157 -37.33091708 78.5434157 -37.51953125 76.49609375 C-38.31617188 76.12097656 -39.1128125 75.74585937 -39.93359375 75.359375 C-50.69414433 70.16236943 -58.69808495 64.46068957 -63.55859375 53.05859375 C-64.2859111 50.88398834 -64.93332262 48.7125614 -65.51953125 46.49609375 C-67.12044033 40.77856133 -68.67262634 38.88176062 -72.51953125 33.49609375 C-72.84953125 40.42609375 -73.17953125 47.35609375 -73.51953125 54.49609375 C-76.48953125 54.49609375 -79.45953125 54.49609375 -82.51953125 54.49609375 C-82.51953125 42.61609375 -82.51953125 30.73609375 -82.51953125 18.49609375 C-72.51953125 18.49609375 -72.51953125 18.49609375 -70.23046875 20.02734375 C-69.78960938 20.67703125 -69.34875 21.32671875 -68.89453125 21.99609375 C-68.42789063 22.64578125 -67.96125 23.29546875 -67.48046875 23.96484375 C-67.16335938 24.47015625 -66.84625 24.97546875 -66.51953125 25.49609375 C-66.10703125 24.58988281 -65.69453125 23.68367188 -65.26953125 22.75 C-59.73009874 10.91952915 -53.54444697 2.41371789 -41.51953125 -3.50390625 C-40.84664062 -3.84421875 -40.17375 -4.18453125 -39.48046875 -4.53515625 C-26.58714477 -9.911523 -11.55167444 -6.89518552 0 0 Z " transform="translate(771.51953125,8.50390625)" style="fill: #FDF1ED;"/><path d="M0 0 C0.495 1.485 0.495 1.485 1 3 C4.63 3 8.26 3 12 3 C11.608125 4.051875 11.21625 5.10375 10.8125 6.1875 C9.61190014 9.94027673 9.61190014 9.94027673 11.375 12.9375 C11.91125 13.618125 12.4475 14.29875 13 15 C13.53625 14.113125 14.0725 13.22625 14.625 12.3125 C18.00326593 7.2630071 22.2034881 3.96083785 28 2 C35.28721967 0.83583587 40.7419129 2.01816184 46.828125 6.17578125 C51.08535503 9.7515482 53.44013242 13.10518082 54.50390625 18.60546875 C54.9222608 24.91639165 53.50365121 29.60553296 49.9609375 34.828125 C45.94783753 39.27291301 41.28006036 41.45002009 35.4140625 42.43359375 C28.18822317 42.80044405 22.94151723 40.50028964 17.5 35.875 C16 34 16 34 16 32 C15.34 32 14.68 32 14 32 C13.88785156 32.60585938 13.77570313 33.21171875 13.66015625 33.8359375 C11.67073685 42.28771925 7.04484213 48.64562251 -0.2265625 53.48046875 C-7.77652975 57.39683753 -15.54673183 58.17443498 -23.84765625 56.38671875 C-30.82708661 54.15840554 -36.1447371 50.49886751 -41 45 C-41.33 44.01 -41.66 43.02 -42 42 C-48.6 41.67 -55.2 41.34 -62 41 C-62 28.46 -62 15.92 -62 3 C-58.7 3 -55.4 3 -52 3 C-52 12.57 -52 22.14 -52 32 C-49.03 31.505 -49.03 31.505 -46 31 C-46.04640625 30.32195313 -46.0928125 29.64390625 -46.140625 28.9453125 C-46.48060263 20.17874655 -44.74477569 13.19347116 -39.3125 6.1875 C-29.00097036 -4.79764715 -13.14869697 -6.80183459 0 0 Z M-40 32 C-40 34.97 -40 37.94 -40 41 C-39.67 41 -39.34 41 -39 41 C-39 38.03 -39 35.06 -39 32 C-39.33 32 -39.66 32 -40 32 Z " transform="translate(592,23)" style="fill: #FDF2ED;"/><path d="M0 0 C6.93 0 13.86 0 21 0 C21.99902344 2.65933594 22.99804688 5.31867188 24.02734375 8.05859375 C24.99308149 10.62370016 25.95975138 13.18845342 26.92651367 15.75317383 C27.59969172 17.54056639 28.2718948 19.32832645 28.94311523 21.11645508 C29.90614949 23.68146662 30.87264263 26.24515102 31.83984375 28.80859375 C32.14091537 29.6127623 32.441987 30.41693085 32.75218201 31.24546814 C33.91209935 34.89608405 33.91209935 34.89608405 36 38 C43.425 19.19 43.425 19.19 51 0 C57.93 0 64.86 0 72 0 C72.42023438 2.8359375 72.84046875 5.671875 73.2734375 8.59375 C74.39720389 16.12259437 75.57157214 23.64201316 76.7890625 31.15625 C76.93945984 32.08719482 77.08985718 33.01813965 77.24481201 33.97729492 C77.86008471 37.78348047 78.47602096 41.58953843 79.09863281 45.39453125 C80.76498578 55.59274942 82.35921683 65.67819548 83 76 C76.4 76 69.8 76 63 76 C62.65066406 73.37546875 62.30132813 70.7509375 61.94140625 68.046875 C61.60105044 65.50171685 61.25991362 62.95666452 60.91870117 60.41162109 C60.68220675 58.64447768 60.44652286 56.8772256 60.21166992 55.10986328 C59.87372078 52.56774267 59.53284701 50.02602869 59.19140625 47.484375 C59.08719864 46.69569031 58.98299103 45.90700562 58.87562561 45.09442139 C58.41300453 41.66983767 57.88141348 38.34046524 57 35 C54.73823562 40.35625029 52.47793523 45.71311504 50.21899414 51.07055664 C49.4501917 52.89331794 48.68098824 54.71591015 47.91137695 56.53833008 C46.80574972 59.15662075 45.70156221 61.77551448 44.59765625 64.39453125 C44.25283707 65.21025101 43.90801788 66.02597076 43.55274963 66.8664093 C43.23249313 67.62697128 42.91223663 68.38753326 42.58227539 69.17114258 C42.30025772 69.83954666 42.01824005 70.50795074 41.72767639 71.1966095 C41.09097249 72.77454413 40.53807709 74.38576873 40 76 C37.03 76 34.06 76 31 76 C28.71475512 70.36096072 26.43627495 64.71925442 24.1640625 59.07495117 C23.38988308 57.15460301 22.61384965 55.23500121 21.8359375 53.31616211 C20.71908895 50.5603668 19.60890207 47.80196956 18.5 45.04296875 C18.15001953 44.18350143 17.80003906 43.32403412 17.43945312 42.43852234 C17.11912109 41.63791885 16.79878906 40.83731537 16.46875 40.01245117 C16.18451172 39.3085173 15.90027344 38.60458344 15.60742188 37.87931824 C15 36 15 36 15 33 C14.34 33 13.68 33 13 33 C13.07734375 34.94519531 13.07734375 34.94519531 13.15625 36.9296875 C13.15625 44.75356491 11.73360309 52.42201804 10.5 60.125 C10.25842062 61.66916242 10.01752977 63.21343273 9.77734375 64.7578125 C9.19408439 68.50676232 8.59677906 72.25308004 8 76 C1.4 76 -5.2 76 -12 76 C-12 71.00304038 -11.81616361 67.06493752 -10.9765625 62.25390625 C-10.65171875 60.37928711 -10.65171875 60.37928711 -10.3203125 58.46679688 C-9.97613281 56.53416992 -9.97613281 56.53416992 -9.625 54.5625 C-9.40328125 53.27794922 -9.1815625 51.99339844 -8.953125 50.66992188 C-7.21876073 40.76874234 -7.21876073 40.76874234 -6 36.05639648 C-4.99964137 32.1400045 -4.32342211 28.21601796 -3.7109375 24.21875 C-3.54871201 23.17031921 -3.54871201 23.17031921 -3.38320923 22.10070801 C-3.04365134 19.90099157 -2.70923343 17.70053106 -2.375 15.5 C-2.14357099 13.99473907 -1.91180309 12.48953021 -1.6796875 10.984375 C-1.11524871 7.32358628 -0.5577907 3.66183207 0 0 Z " transform="translate(598,161)" style="fill: #F48022;"/><path d="M0 0 C6.93 0 13.86 0 21 0 C25.62 12.21 30.24 24.42 35 37 C37.83762266 33.21650312 39.47047227 29.73596565 41.13671875 25.390625 C41.42102249 24.66381531 41.70532623 23.93700562 41.99824524 23.18817139 C42.90050151 20.87767228 43.79410203 18.56393682 44.6875 16.25 C45.29956108 14.67816368 45.91218513 13.10654646 46.52539062 11.53515625 C48.0245294 7.69297921 49.5119064 3.84654152 51 0 C57.93 0 64.86 0 72 0 C74.54194062 15.36216285 77.0574572 30.70236143 78.96923828 46.15795898 C79.7926475 52.71265176 80.83274814 59.20267916 82.08642578 65.68896484 C82.76531509 69.26798156 83 72.30566618 83 76 C76.4 76 69.8 76 63 76 C62.60167969 72.96039063 62.60167969 72.96039063 62.1953125 69.859375 C61.93064795 67.85349627 61.66596768 65.84761958 61.40087891 63.84179688 C61.21980587 62.46884667 61.03944382 61.09580247 60.85986328 59.72265625 C59.73412058 51.11921483 58.49715463 42.54768496 57 34 C54.73840223 39.49874948 52.47809748 44.99802797 50.21899414 50.49780273 C49.45014473 52.36904293 48.68094097 54.24013757 47.91137695 56.11108398 C46.8058726 58.798935 45.70163984 61.48730532 44.59765625 64.17578125 C44.25283707 65.01337479 43.90801788 65.85096832 43.55274963 66.71394348 C43.23249313 67.49452621 42.91223663 68.27510895 42.58227539 69.0793457 C42.30025772 69.76551468 42.01824005 70.45168365 41.72767639 71.15864563 C41.09793197 72.7521873 40.54184436 74.37446692 40 76 C37.03 76 34.06 76 31 76 C18.51220703 44.78051758 18.51220703 44.78051758 17.722229 42.79385376 C17.09963059 41.24745988 16.45047995 39.71180461 15.79638672 38.1784668 C15 36 15 36 15 33 C14.34 33 13.68 33 13 33 C13.061875 34.299375 13.12375 35.59875 13.1875 36.9375 C13.1953752 42.52101915 12.24639207 47.83627695 11.21435547 53.29833984 C9.80106946 60.83530904 8.89200084 68.3836851 8 76 C1.4 76 -5.2 76 -12 76 C-10.40816919 63.50578629 -8.49906958 51.06982665 -6.54101562 38.62817383 C-5.99845673 35.17768533 -5.46001355 31.72657096 -4.921875 28.27539062 C-4.5731635 26.05204461 -4.22421348 23.82873598 -3.875 21.60546875 C-3.71660645 20.58857468 -3.55821289 19.5716806 -3.39501953 18.52397156 C-3.24145996 17.55208389 -3.08790039 16.58019623 -2.9296875 15.57885742 C-2.79804199 14.74029709 -2.66639648 13.90173676 -2.53076172 13.0377655 C-1.76880741 8.67679065 -0.86821382 4.34106908 0 0 Z " transform="translate(499,161)" style="fill: #F47F22;"/><path d="M0 0 C6.27 0 12.54 0 19 0 C19.0093457 1.40693115 19.01869141 2.8138623 19.02832031 4.26342773 C19.06837588 9.51374259 19.1341783 14.76348107 19.20751953 20.01342773 C19.235639 22.27995363 19.25689814 24.54657594 19.27099609 26.81323242 C19.29255039 30.08301842 19.33926611 33.35165609 19.390625 36.62109375 C19.39185364 37.62458359 19.39308228 38.62807343 19.39434814 39.66197205 C19.52575951 46.06183303 20.45460478 51.54521552 24 57 C28.46346302 59.97564201 32.76713581 59.61292699 38 59 C41.36773267 57.21303981 42.54903002 56.00548412 44.09521484 52.55810547 C45.3578227 47.59284725 45.35740244 42.80079357 45.4140625 37.6953125 C45.43342865 36.61619598 45.4527948 35.53707947 45.4727478 34.42526245 C45.53233942 30.99192105 45.57884761 27.55854576 45.625 24.125 C45.66319853 21.79165236 45.70225135 19.45831854 45.7421875 17.125 C45.83802434 11.41677941 45.92213102 5.70849283 46 0 C52.6 0 59.2 0 66 0 C66.04963634 7.09837844 66.08583149 14.19665462 66.10986328 21.29516602 C66.11988754 23.70729331 66.13351045 26.11940855 66.15087891 28.53149414 C66.17528462 32.0093077 66.18651918 35.48695983 66.1953125 38.96484375 C66.20563507 40.03395493 66.21595764 41.1030661 66.22659302 42.20457458 C66.22801104 51.78290564 65.40231453 62.46997118 58.34765625 69.69140625 C48.74958092 77.52296465 37.98352222 79.10817919 25.98144531 78.23193359 C18.72193161 77.38218766 11.22788171 74.19931405 6 69 C4.37221026 66.72723696 3.24370639 64.53347598 2 62 C1.63987823 61.38827942 1.27975647 60.77655884 0.90872192 60.14630127 C-0.25821608 57.39012202 -0.2400547 55.21258083 -0.22705078 52.22167969 C-0.22682419 50.48032745 -0.22682419 50.48032745 -0.22659302 48.70379639 C-0.21627045 47.45576233 -0.20594788 46.20772827 -0.1953125 44.921875 C-0.1924826 43.64016418 -0.18965271 42.35845337 -0.18673706 41.03790283 C-0.17911788 37.63810361 -0.15948434 34.23847654 -0.1373291 30.83874512 C-0.11683358 27.36647876 -0.10772744 23.89418447 -0.09765625 20.421875 C-0.07623664 13.61450569 -0.0410686 6.80727884 0 0 Z " transform="translate(413,161)" style="fill: #F48121;"/><path d="M0 0 C0.61875 0.433125 1.2375 0.86625 1.875 1.3125 C0.32954854 6.79182789 -2.28043212 11.42679181 -5.125 16.3125 C-5.888125 16.003125 -6.65125 15.69375 -7.4375 15.375 C-11.19276401 13.89036074 -14.10115112 13.15493935 -18.125 13.125 C-18.99125 13.11082031 -19.8575 13.09664062 -20.75 13.08203125 C-23.39221537 13.14994062 -23.39221537 13.14994062 -26.125 15.3125 C-26.87585106 17.72513295 -26.87585106 17.72513295 -26.125 20.3125 C-22.07047108 23.9402364 -17.81373981 25.08880168 -12.6484375 26.546875 C-5.30517976 28.77486032 -0.5920266 32.03702318 3.875 38.3125 C6.65893428 43.88036855 5.6725723 54.00209448 4.2265625 60.00390625 C1.01743497 67.01187278 -4.63897494 71.00324146 -11.6875 73.6875 C-22.89682484 77.01811088 -33.50194234 76.07678041 -44.125 71.3125 C-46.3054278 70.09932964 -48.15039391 68.84830474 -50.125 67.3125 C-49.52665275 63.16951333 -48.11835715 60.13055623 -46.0625 56.5 C-45.51464844 55.52417969 -44.96679688 54.54835937 -44.40234375 53.54296875 C-43.77005859 52.43888672 -43.77005859 52.43888672 -43.125 51.3125 C-40.05740112 52.484629 -37.26644204 53.7806359 -34.4375 55.4375 C-29.74949787 57.80374017 -25.28735774 58.21545657 -20.125 57.3125 C-17.11918936 55.38019316 -16.41128446 54.24292451 -15.375 50.875 C-16.43507978 47.25306076 -18.2972997 46.32908039 -21.50390625 44.5 C-25.58015534 42.65323439 -29.83207794 41.51454004 -34.125 40.27734375 C-39.33218343 38.60263762 -43.29009225 36.13184317 -46.125 31.3125 C-49.28547587 24.15984409 -48.95194199 16.7535223 -46.21875 9.515625 C-42.89587738 2.82241015 -38.14544034 -1.63704409 -31.0625 -4.06640625 C-20.3498542 -6.33144705 -9.62162188 -5.19567581 0 0 Z " transform="translate(398.125,163.6875)" style="fill: #F48023;"/><path d="M0 0 C15 0 15 0 18.73828125 2.82421875 C20.07836914 4.67456055 20.07836914 4.67456055 21.3125 6.6875 C21.78486084 7.36143799 22.25722168 8.03537598 22.74389648 8.72973633 C23.7157373 10.11684925 24.66914878 11.51706036 25.60351562 12.9296875 C27.76755963 16.13792056 30.16978871 19.14854006 32.5625 22.1875 C34.04483944 24.12257366 35.52448781 26.05971547 37 28 C37.87978516 29.10794922 37.87978516 29.10794922 38.77734375 30.23828125 C40 32 40 32 40 34 C40.66 34 41.32 34 42 34 C42 22.78 42 11.56 42 0 C46.95 0 51.9 0 57 0 C57 18.81 57 37.62 57 57 C51.72 57 46.44 57 41 57 C35.07821569 50.72987544 35.07821569 50.72987544 33.37890625 47.8046875 C30.92426775 43.78195226 28.07747614 40.16592165 25.125 36.5 C24.23060674 35.36550009 23.33732199 34.23012512 22.4453125 33.09375 C20.30670444 30.38803501 18.15447695 27.69309619 16 25 C15.67 35.56 15.34 46.12 15 57 C10.05 57 5.1 57 0 57 C0 38.19 0 19.38 0 0 Z " transform="translate(512,83)" style="fill: #F05727;"/><path d="M0 0 C17.16 0 34.32 0 52 0 C52 5.28 52 10.56 52 16 C46.72 16 41.44 16 36 16 C36 35.8 36 55.6 36 76 C29.73 76 23.46 76 17 76 C17 56.2 17 36.4 17 16 C11.39 16 5.78 16 0 16 C0 10.72 0 5.44 0 0 Z " transform="translate(716,161)" style="fill: #F3791F;"/><path d="M0 0 C2.08644333 0.93690608 4.0616189 1.91539078 6.015625 3.1015625 C5.43928361 7.85637896 3.46493979 11.07204462 1.015625 15.1015625 C-0.015625 14.6065625 -1.046875 14.1115625 -2.109375 13.6015625 C-5.52318208 12.14048077 -8.23895855 11.66604896 -11.984375 12.1015625 C-14.25079468 13.91818303 -14.25079468 13.91818303 -14.09375 16.5390625 C-13.15393626 19.48131116 -13.15393626 19.48131116 -9.5625 20.7265625 C-8.12641884 21.20525622 -6.6831684 21.66284337 -5.234375 22.1015625 C0.40103361 23.84489034 4.14058153 25.36868498 8.015625 30.1015625 C10.00937388 36.08280913 10.01471076 42.77590272 7.328125 48.5390625 C4.10420468 54.07063104 0.09444083 56.40664562 -5.984375 58.1015625 C-15.43081546 59.04027782 -24.05100709 59.03809631 -31.984375 53.1015625 C-32.314375 52.4415625 -32.644375 51.7815625 -32.984375 51.1015625 C-31.76953125 48.5 -31.76953125 48.5 -30.046875 45.4765625 C-29.19802734 43.97222656 -29.19802734 43.97222656 -28.33203125 42.4375 C-27.88730469 41.66664062 -27.44257813 40.89578125 -26.984375 40.1015625 C-26.4275 40.4625 -25.870625 40.8234375 -25.296875 41.1953125 C-19.89062481 44.48289707 -16.32242146 45.97577581 -9.984375 45.1015625 C-7.82871583 44.03437952 -7.82871583 44.03437952 -6.984375 42.1015625 C-7.08682466 40.06527435 -7.08682466 40.06527435 -7.984375 38.1015625 C-9.74967095 36.88465717 -9.74967095 36.88465717 -11.984375 36.1015625 C-12.79261719 35.77027344 -13.60085938 35.43898437 -14.43359375 35.09765625 C-15.27535156 34.76894531 -16.11710937 34.44023438 -16.984375 34.1015625 C-26.82359448 30.23783084 -26.82359448 30.23783084 -29.984375 25.1015625 C-31.95969014 19.17561709 -31.39453922 13.61737334 -29.03515625 7.92578125 C-23.21686345 -2.17512111 -10.16576534 -3.06037438 0 0 Z " transform="translate(379.984375,82.8984375)" style="fill: #F05726;"/><path d="M0 0 C1.5390625 1.046875 1.5390625 1.046875 2.41796875 2.890625 C2.57863947 5.75160037 1.70329963 6.95286944 0.1015625 9.296875 C-0.37152344 10.00328125 -0.84460938 10.7096875 -1.33203125 11.4375 C-1.70457031 11.96859375 -2.07710937 12.4996875 -2.4609375 13.046875 C-3.729375 12.551875 -3.729375 12.551875 -5.0234375 12.046875 C-9.20360638 10.83082587 -13.43845475 10.03563362 -17.4609375 12.046875 C-17.4609375 13.696875 -17.4609375 15.346875 -17.4609375 17.046875 C-16.91566406 17.28921875 -16.37039063 17.5315625 -15.80859375 17.78125 C-14.21979317 18.48738359 -12.63267013 19.19729882 -11.046875 19.91015625 C-9.37678331 20.64429021 -7.69476856 21.35212643 -6 22.02734375 C-0.44808801 24.28684282 2.7781108 26.5249716 5.5390625 32.046875 C6.27231412 39.18706286 5.85133518 45.14366677 1.5390625 51.046875 C-0.9609375 53.421875 -0.9609375 53.421875 -3.4609375 55.046875 C-4.27691406 55.58054687 -4.27691406 55.58054687 -5.109375 56.125 C-8.55069494 57.47408888 -11.94099932 57.4286448 -15.5859375 57.421875 C-16.34205322 57.42243896 -17.09816895 57.42300293 -17.87719727 57.42358398 C-24.03956044 57.30298592 -29.017546 56.01274915 -34.4609375 53.046875 C-35.1209375 52.716875 -35.7809375 52.386875 -36.4609375 52.046875 C-35.04801655 47.2193951 -33.03119596 43.3306391 -30.4609375 39.046875 C-29.89246094 39.4078125 -29.32398438 39.76875 -28.73828125 40.140625 C-23.82583951 43.09301068 -20.36410457 44.87331839 -14.4609375 44.046875 C-13.4709375 43.386875 -12.4809375 42.726875 -11.4609375 42.046875 C-11.21062773 39.46307323 -11.21062773 39.46307323 -11.4609375 37.046875 C-15.67090516 34.82707387 -19.56377972 32.95650226 -24.1484375 31.671875 C-28.86518776 30.18923502 -30.73654165 28.13346878 -33.4609375 24.046875 C-35.12622835 19.05100246 -35.5135334 13.77512806 -33.58984375 8.7890625 C-32.36688437 6.67995878 -31.05253405 4.89214503 -29.4609375 3.046875 C-29.01105469 2.51707031 -28.56117188 1.98726563 -28.09765625 1.44140625 C-20.97507764 -5.12903448 -8.42696383 -2.84054961 0 0 Z " transform="translate(763.4609375,83.953125)" style="fill: #F05726;"/><path d="M0 0 C-1.65 3.63 -3.3 7.26 -5 11 C-7.475 10.505 -7.475 10.505 -10 10 C-11.55888557 9.74741461 -13.12160799 9.51720914 -14.6875 9.3125 C-15.45449219 9.20550781 -16.22148438 9.09851563 -17.01171875 8.98828125 C-19.23707107 8.76845311 -19.23707107 8.76845311 -21 11 C-21 12.32 -21 13.64 -21 15 C-17.23070264 17.03745803 -13.59029691 18.45539034 -9.5 19.75 C-5.07783517 21.37286813 -1.81869883 22.92633277 1.0390625 26.7421875 C3.56351451 32.67362353 2.80165253 39.5059699 0.875 45.5 C-2.24490968 49.65987957 -6.07929236 53.14142989 -11 55 C-13.92506392 55.27296765 -16.69917001 55.42788939 -19.625 55.4375 C-20.42663574 55.44136719 -21.22827148 55.44523437 -22.05419922 55.44921875 C-28.61580823 55.32183463 -33.57447107 53.81695503 -39 50 C-38.21258341 45.2009031 -36.50483074 42.12085057 -34 38 C-29 40 -29 40 -26.625 41.125 C-23.27259234 42.24246922 -20.51207766 42.2601539 -17 42 C-13.7756937 40.35862883 -13.7756937 40.35862883 -13.5 37.5625 C-13.75036662 34.87910915 -13.75036662 34.87910915 -15.875 33.375 C-18.57883102 32.18531435 -21.10509915 31.36138229 -23.9375 30.5625 C-28.77722828 29.17765972 -33.21903975 27.6868466 -36.12890625 23.296875 C-38.23347403 17.74761108 -38.20640769 10.21529193 -36.125 4.66796875 C-27.79342021 -7.91162047 -12.02108735 -5.91807377 0 0 Z " transform="translate(680,86)" style="fill: #F05625;"/><path d="M0 0 C10.89 0 21.78 0 33 0 C33 4.29 33 8.58 33 13 C27.06 13 21.12 13 15 13 C15 15.97 15 18.94 15 22 C20.61 22 26.22 22 32 22 C32 26.29 32 30.58 32 35 C26.39 35 20.78 35 15 35 C15 37.97 15 40.94 15 44 C20.94 44 26.88 44 33 44 C33 48.29 33 52.58 33 57 C22.11 57 11.22 57 0 57 C0 38.19 0 19.38 0 0 Z " transform="translate(470,83)" style="fill: #F05929;"/><path d="M0 0 C6.6 0 13.2 0 20 0 C20 25.08 20 50.16 20 76 C13.4 76 6.8 76 0 76 C0 50.92 0 25.84 0 0 Z " transform="translate(689,161)" style="fill: #F48023;"/><path d="M0 0 C1.0219043 -0.00483398 1.0219043 -0.00483398 2.06445312 -0.00976562 C6.64176146 0.03860171 9.42262614 0.80754205 13.9375 2.3125 C13.9375 8.2525 13.9375 14.1925 13.9375 20.3125 C12.4525 19.4875 10.9675 18.6625 9.4375 17.8125 C4.48183397 15.35566557 1.42118614 14.48994708 -4.0625 15.3125 C-8.55350008 17.60036796 -10.82765952 19.84281903 -13.0625 24.3125 C-13.81434196 28.96765482 -14.1936276 34.04591098 -12.04296875 38.35546875 C-9.47301561 41.49997334 -6.66978811 44.09550349 -2.57421875 44.6484375 C3.67991693 44.73494007 7.12880271 44.3813977 11.9375 40.3125 C12.5975 39.9825 13.2575 39.6525 13.9375 39.3125 C13.9375 45.2525 13.9375 51.1925 13.9375 57.3125 C6.1937148 60.41001408 -3.00253243 60.70366756 -11.1171875 58.47265625 C-18.96523217 54.84201876 -25.97234896 48.49231156 -29.0625 40.3125 C-31.28485696 30.71449458 -30.80050581 22.77691258 -25.96875 14.08203125 C-19.60524774 4.83669702 -11.36046449 -0.27022989 0 0 Z " transform="translate(423.0625,81.6875)" style="fill: #F05727;"/><path d="M0 0 C5.67595622 3.12220014 10.07170724 6.69647336 12.23828125 12.9375 C13.40667041 18.97870595 12.71230107 23.85796632 9.86328125 29.3125 C6.33278834 34.5170764 2.24191037 37.17537287 -3.76171875 38.9375 C-9.74989746 39.94156018 -14.72224227 39.22211084 -20.0078125 36.2109375 C-23.98266682 33.32496309 -26.92476925 29.49764657 -28.76171875 24.9375 C-29.40489342 19.14892801 -29.61177868 13.76839832 -27.13671875 8.4375 C-19.59285292 0.4965886 -11.02371566 -4.24109004 0 0 Z " transform="translate(633.76171875,26.0625)" style="fill: #ED352B;"/><path d="M0 0 C4.00356187 2.68370631 6.23524762 6.08672521 8.1328125 10.4296875 C9.22956722 17.01021584 7.95424156 22.4323907 4.765625 28.2265625 C1.51485975 32.6127625 -2.78503649 34.73563716 -7.8671875 36.4296875 C-14.71008331 37.1711025 -20.2159544 36.52022371 -25.8671875 32.4296875 C-30.06006 28.53554383 -32.54289125 24.23145628 -33.203125 18.52734375 C-33.28309046 12.31402756 -33.28870553 8.20027274 -28.8671875 3.4296875 C-20.12294686 -5.12289855 -10.58245588 -5.87177019 0 0 Z " transform="translate(445.8671875,28.5703125)" style="fill: #ED362B;"/><path d="M0 0 C6.16179807 2.49406113 10.2829708 6.41993573 13.1484375 12.39453125 C15.05061889 18.21450826 14.95444961 24.6952734 12.4375 30.3125 C9.19889317 35.84654044 4.92163258 39.7290535 -1.3125 41.4375 C-5 42 -5 42 -7 41 C-7.66 42.98 -8.32 44.96 -9 47 C-10.485 46.505 -10.485 46.505 -12 46 C-12.15082031 45.35675781 -12.30164063 44.71351563 -12.45703125 44.05078125 C-12.78214404 41.87626622 -12.78214404 41.87626622 -14.63671875 40.98046875 C-15.31347656 40.71878906 -15.99023438 40.45710938 -16.6875 40.1875 C-22.09958458 37.7195117 -25.49428051 33.99109143 -28.15625 28.703125 C-29.18249976 25.41532485 -29.19444927 22.62523881 -29.125 19.1875 C-29.10695313 18.02605469 -29.08890625 16.86460937 -29.0703125 15.66796875 C-29.04710937 14.78753906 -29.02390625 13.90710938 -29 13 C-28.16597656 12.90203125 -27.33195312 12.8040625 -26.47265625 12.703125 C-17.11253294 11.45939728 -9.05319481 9.62572846 -2 3 C-1.34 2.01 -0.68 1.02 0 0 Z " transform="translate(400,226)" style="fill: #FDF2EC;"/><path d="M0 0 C12.87 0 25.74 0 39 0 C39 4.29 39 8.58 39 13 C35.04 13 31.08 13 27 13 C27 27.52 27 42.04 27 57 C22.05 57 17.1 57 12 57 C12 42.48 12 27.96 12 13 C8.04 13 4.08 13 0 13 C0 8.71 0 4.42 0 0 Z " transform="translate(685,83)" style="fill: #F05427;"/><path d="M0 0 C12.87 0 25.74 0 39 0 C39 4.29 39 8.58 39 13 C35.04 13 31.08 13 27 13 C27 27.52 27 42.04 27 57 C22.05 57 17.1 57 12 57 C12 42.48 12 27.96 12 13 C8.04 13 4.08 13 0 13 C0 8.71 0 4.42 0 0 Z " transform="translate(574,83)" style="fill: #F05426;"/><path d="M0 0 C0.33 0 0.66 0 1 0 C1 5.61 1 11.22 1 17 C13.53994625 15.73995444 13.53994625 15.73995444 23.18359375 8.36328125 C23.78300781 7.58339844 24.38242187 6.80351562 25 6 C25.07613738 12.45947714 25.12863649 18.9188383 25.16479492 25.37866211 C25.17987052 27.57564621 25.20033426 29.77260026 25.22631836 31.96948242 C25.26275502 35.12947 25.27973884 38.28905924 25.29296875 41.44921875 C25.30845261 42.42960617 25.32393646 43.40999359 25.33988953 44.42008972 C25.34112366 49.4339941 25.31394404 52.94951138 22 57 C18.9573561 59.93972148 16.7515071 60.43169 12.5625 60.4375 C8.89027339 60.32978135 7.20791312 60.11456437 3.9375 58.3125 C0.64921198 54.38776914 -0.2521576 50.80975643 -0.22705078 45.75073242 C-0.22689972 44.73005173 -0.22674866 43.70937103 -0.22659302 42.65776062 C-0.21627045 41.5680043 -0.20594788 40.47824799 -0.1953125 39.35546875 C-0.1924826 38.2305452 -0.18965271 37.10562164 -0.18673706 35.9466095 C-0.17555836 32.36013064 -0.15045763 28.77390315 -0.125 25.1875 C-0.11496723 22.75325882 -0.1058419 20.31901372 -0.09765625 17.88476562 C-0.07562656 11.92309158 -0.04217174 5.96156375 0 0 Z " transform="translate(433,161)" style="fill: #FEFEFE;"/><path d="M0 0 C3.3 0 6.6 0 10 0 C10 12.54 10 25.08 10 38 C0 38 0 38 -3.42578125 34.96484375 C-4.42037324 33.64618602 -5.38240293 32.30241423 -6.3125 30.9375 C-7.04049805 29.95233398 -7.04049805 29.95233398 -7.78320312 28.94726562 C-9.22254323 26.98628548 -10.61101142 24.99693768 -12 23 C-13.65 20.69 -15.3 18.38 -17 16 C-17.33 22.93 -17.66 29.86 -18 37 C-20.97 37 -23.94 37 -27 37 C-27 25.12 -27 13.24 -27 1 C-17 1 -17 1 -14.046875 3.34375 C-13.28890625 4.3853125 -12.5309375 5.426875 -11.75 6.5 C-10.98171875 7.5209375 -10.2134375 8.541875 -9.421875 9.59375 C-8.62265625 10.7178125 -7.8234375 11.841875 -7 13 C-5.02 15.64 -3.04 18.28 -1 21 C-0.67 14.07 -0.34 7.14 0 0 Z " transform="translate(716,26)" style="fill: #ED3729;"/><path d="M0 0 C20 0 20 0 25 5 C25.265625 7.05859375 25.265625 7.05859375 25.25 9.4375 C25.25515625 10.21996094 25.2603125 11.00242187 25.265625 11.80859375 C25 14 25 14 23 17 C23.804375 17.61875 24.60875 18.2375 25.4375 18.875 C28 21 28 21 29 23 C29.27454818 26.63776343 29.2589518 29.32977182 27.9375 32.75 C26 35 26 35 19 38 C12.73 38 6.46 38 0 38 C0 25.46 0 12.92 0 0 Z " transform="translate(458,26)" style="fill: #ED372D;"/><path d="M0 0 C3.50305226 2.11223003 6.53279517 4.37609164 8.54296875 8.01953125 C8.54296875 8.67953125 8.54296875 9.33953125 8.54296875 10.01953125 C1.91796875 13.01953125 1.91796875 13.01953125 -1.45703125 13.01953125 C-1.84890625 12.35953125 -2.24078125 11.69953125 -2.64453125 11.01953125 C-4.45498783 8.58602248 -4.45498783 8.58602248 -8.39453125 8.51953125 C-11.51693952 8.668764 -12.31807865 8.91264463 -14.89453125 10.89453125 C-17.71761948 14.73393125 -17.77528655 17.24570179 -17.45703125 22.01953125 C-15.87978823 26.0001922 -15.04702214 27.62620399 -11.45703125 30.01953125 C-8.66199981 30.23930187 -6.1165653 29.9060426 -3.45703125 29.01953125 C-1.39249123 26.61210024 -1.39249123 26.61210024 -0.45703125 24.01953125 C-3.09703125 24.01953125 -5.73703125 24.01953125 -8.45703125 24.01953125 C-8.45703125 21.70953125 -8.45703125 19.39953125 -8.45703125 17.01953125 C-2.18703125 17.01953125 4.08296875 17.01953125 10.54296875 17.01953125 C10.54296875 24.37185636 9.93094298 28.17977812 5.23046875 33.76953125 C0.00736778 38.14235997 -4.1833429 39.60051972 -10.9296875 39.3671875 C-16.4699 38.60508717 -20.67409193 36.22136242 -24.33203125 32.01953125 C-28.78028483 25.73964384 -29.42060444 20.68878726 -28.45703125 13.01953125 C-26.13707095 7.0758313 -22.08918301 3.19565703 -16.6640625 -0.0546875 C-11.57325506 -2.19012354 -5.09456393 -2.03296589 0 0 Z " transform="translate(758.45703125,25.98046875)" style="fill: #ED382A;"/><path d="M0 0 C4.41374439 2.79441609 6.61196871 4.7850709 8.28125 9.8359375 C1.65625 12.8359375 1.65625 12.8359375 -1.71875 12.8359375 C-2.09 12.1759375 -2.46125 11.5159375 -2.84375 10.8359375 C-5.10495819 8.4239821 -5.93412426 8.41133157 -9.15625 8.2109375 C-12.83629824 8.39673798 -13.48535106 8.61392387 -16.28125 11.2734375 C-18.05647867 15.67291725 -18.55412718 19.15954772 -17.71875 23.8359375 C-16.34932551 26.94441323 -16.34932551 26.94441323 -13.71875 28.8359375 C-10.02601235 29.75912191 -6.2230437 30.65297868 -2.71875 28.8359375 C-1.42214566 26.34559364 -1.42214566 26.34559364 -0.71875 23.8359375 C-3.35875 23.8359375 -5.99875 23.8359375 -8.71875 23.8359375 C-8.71875 21.5259375 -8.71875 19.2159375 -8.71875 16.8359375 C-2.44875 16.8359375 3.82125 16.8359375 10.28125 16.8359375 C10.18606586 24.45066847 9.66824028 28.81199557 4.16015625 34.2421875 C-0.95876633 38.58422578 -5.37644489 39.43708866 -11.96484375 39.2578125 C-17.91641072 38.34608309 -22.96991788 34.44988473 -26.71875 29.8359375 C-29.75499094 23.41269855 -29.5259143 16.86280362 -27.71875 10.0859375 C-21.68042753 0.27366348 -11.19895582 -4.79495522 0 0 Z " transform="translate(375.71875,26.1640625)" style="fill: #ED352A;"/><path d="M0 0 C4.95 0 9.9 0 15 0 C15 18.81 15 37.62 15 57 C10.05 57 5.1 57 0 57 C0 38.19 0 19.38 0 0 Z " transform="translate(618,83)" style="fill: #F05929;"/><path d="M0 0 C4.95 0 9.9 0 15 0 C15 18.81 15 37.62 15 57 C10.05 57 5.1 57 0 57 C0 38.19 0 19.38 0 0 Z " transform="translate(446,83)" style="fill: #F05523;"/><path d="M0 0 C3.63 0 7.26 0 11 0 C14.74992969 7.03549893 17.50379257 14.33626961 20.25 21.8125 C20.93835938 23.65231445 20.93835938 23.65231445 21.640625 25.52929688 C22.07375 26.70169922 22.506875 27.87410156 22.953125 29.08203125 C23.34661133 30.14655518 23.74009766 31.2110791 24.14550781 32.30786133 C25 35 25 35 25 38 C21.7 38 18.4 38 15 38 C13 34 13 34 13 31 C8.38 31 3.76 31 -1 31 C-1.66 33.31 -2.32 35.62 -3 38 C-6.63 38 -10.26 38 -14 38 C-11.38548015 29.87089561 -8.35854682 21.91152126 -5.3125 13.9375 C-4.79605426 12.58144483 -4.27977693 11.2253255 -3.76367188 9.86914062 C-2.51105393 6.57868575 -1.25616389 3.28910307 0 0 Z " transform="translate(502,26)" style="fill: #ED382D;"/><path d="M0 0 C4.95017338 2.74922604 8.91702022 6.6009684 10.75 12.0625 C9.12508049 17.9244408 5.22675182 21.41207572 0.0625 24.375 C-5.33806404 26.86678567 -10.71361422 27.0819986 -16.41796875 25.4375 C-21.91028151 23.05785192 -25.9274898 18.99329774 -29.25 14.0625 C-30.0546875 12.02734375 -30.0546875 12.02734375 -30.25 10.0625 C-24.17929793 -1.45090048 -11.72969098 -5.03955286 0 0 Z " transform="translate(329.25,296.9375)" style="fill: #FDF2EE;"/><path d="M0 0 C3.3 0 6.6 0 10 0 C10.01981934 0.73637695 10.03963867 1.47275391 10.06005859 2.23144531 C10.15537828 5.57132056 10.26502996 8.91057639 10.375 12.25 C10.4059375 13.40886719 10.436875 14.56773438 10.46875 15.76171875 C10.50742187 16.87675781 10.54609375 17.99179687 10.5859375 19.140625 C10.6173584 20.16704102 10.6487793 21.19345703 10.68115234 22.25097656 C10.99636625 24.96867073 11.61032351 26.66924435 13 29 C15.87413125 29.33397787 15.87413125 29.33397787 19 29 C22.10341723 25.92975739 22.40294208 23.4046704 22.51171875 19.140625 C22.54716797 18.02558594 22.58261719 16.91054688 22.61914062 15.76171875 C22.64169922 14.60285156 22.66425781 13.44398437 22.6875 12.25 C22.72166016 11.07566406 22.75582031 9.90132812 22.79101562 8.69140625 C22.87345173 5.79436611 22.94261811 2.89762702 23 0 C26.3 0 29.6 0 33 0 C33.116965 4.33310328 33.1875089 8.6657958 33.25 13 C33.30027344 14.83111328 33.30027344 14.83111328 33.3515625 16.69921875 C33.42578226 23.5645465 33.4263165 29.4463546 29 35 C25.10797429 38.35978288 21.60104744 38.43242593 16.5625 38.4375 C15.28503906 38.45683594 14.00757813 38.47617188 12.69140625 38.49609375 C8.37523891 37.9160374 6.31526297 36.79054509 3 34 C0.01324723 29.99234652 -0.35837144 27.11677198 -0.29296875 22.16796875 C-0.28330078 20.87568359 -0.27363281 19.58339844 -0.26367188 18.25195312 C-0.23860985 16.8971293 -0.21321506 15.54231159 -0.1875 14.1875 C-0.17244013 12.81316555 -0.15875401 11.43881532 -0.14648438 10.06445312 C-0.11116628 6.70923368 -0.06183851 3.35481834 0 0 Z " transform="translate(650,26)" style="fill: #ED372D;"/><path d="M0 0 C3.93792318 2.56821077 6.74612583 5.61725165 8.875 9.875 C9.54339948 15.25506798 9.2399226 19.78962685 6.1953125 24.3671875 C3.24654782 27.73471166 0.07914835 29.49658869 -4.33203125 30.25390625 C-8.96608375 30.49863475 -12.71284823 29.83913128 -16.6171875 27.26953125 C-20.49777236 23.68049292 -21.94220637 19.38957581 -22.5625 14.25 C-21.87742629 8.96514564 -20.12399694 5.534266 -16.125 2.0625 C-10.93589161 -1.72122487 -6.05728943 -2.18062419 0 0 Z " transform="translate(133.125,267.125)" style="fill: #FEF3ED;"/><path d="M0 0 C3.8062995 3.34211664 6.19882259 6.11998949 6.80078125 11.30078125 C6.98251793 16.83896758 6.30763006 19.89755155 2.5625 24.25 C-0.73440928 27.63849009 -3.54855802 28.98361759 -8.3203125 29.34375 C-13.69878019 29.10558907 -17.36273039 27.18756497 -21.375 23.6875 C-24.33459464 19.63064067 -24.80914564 15.16482403 -24.4375 10.25 C-23.25420163 5.73335784 -21.20333329 2.38691545 -17.3125 -0.25 C-11.5648355 -3.01876742 -5.61126433 -2.85664366 0 0 Z " transform="translate(64.4375,249.75)" style="fill: #FEF3ED;"/><path d="M0 0 C4.85901474 2.29698879 7.66907123 5.15884024 10 10 C10.7971639 14.99447589 10.57907893 18.79729761 8.375 23.375 C5.04034506 27.06067125 1.91915488 29.36028171 -2.8125 30.9375 C-7.30167416 31.02552302 -10.98211176 29.98981132 -15 28 C-18.51479548 24.57532749 -20.95138047 20.91176955 -21.03515625 15.89453125 C-20.59998709 9.55804373 -18.71724283 5.47022076 -13.9375 1.125 C-9.3098552 -0.6472895 -4.8864149 -0.63954548 0 0 Z " transform="translate(208,260)" style="fill: #FEF3ED;"/><path d="M0 0 C4.36872308 2.18436154 7.48211211 4.80352018 10 9 C11.41547619 13.76695852 11.47626057 17.74021687 9.4375 22.3125 C6.92782409 26.61235428 3.94128379 29.13738317 -0.91796875 30.5625 C-6.02094106 31.51005385 -9.42151712 30.59159408 -14 28 C-17.6788143 24.80103105 -19.71822806 22.68376223 -20.23828125 17.73046875 C-20.40730774 11.93908745 -20.05371947 8.48042678 -16 4 C-11.0689115 -0.46146102 -6.38623612 -1.02970257 0 0 Z " transform="translate(275,229)" style="fill: #FEF3ED;"/><path d="M0 0 C3.7766665 -0.48384339 7.24170413 -0.6908253 11 0 C13.73841069 2.26734193 15.47636494 4.79843772 17 8 C17 8.66 17 9.32 17 10 C17.66 10 18.32 10 19 10 C19.2475 9.278125 19.495 8.55625 19.75 7.8125 C21.25476843 4.42677103 22.14921382 2.43359796 25 0 C28.70197686 -0.42735664 32.2905643 -0.28780105 36 0 C34.76129774 3.83643785 32.91112251 6.40018944 30.31787109 9.45458984 C22.92161855 18.4049188 22.59038538 26.69945537 23 38 C19.7 38 16.4 38 13 38 C13.06703125 36.82566406 13.1340625 35.65132812 13.203125 34.44140625 C13.49159525 21.10627687 9.67620573 13.53786189 1.08569336 3.48608398 C0 2 0 2 0 0 Z " transform="translate(568,26)" style="fill: #EC362D;"/><path d="M0 0 C3.29631427 2.01046754 6.05888873 4.24332416 8.4375 7.3125 C8.25 9.625 8.25 9.625 7.4375 11.3125 C4.4375 10.3125 4.4375 10.3125 2.1875 7.9375 C-1.95739859 3.98100589 -6.18969877 2.1911874 -11.875 1.75 C-17.69230548 1.97910621 -22.17821344 4.62088349 -26.5625 8.3125 C-30.12516139 12.6811105 -31.23409647 17.43818811 -30.9453125 23.01171875 C-30.00492175 28.66365906 -27.86586402 33.52367037 -23.5 37.3125 C-17.85413711 41.15649175 -12.18521411 40.78680579 -5.5625 40.3125 C-0.35193495 38.60722417 2.33585481 35.79265417 5.4375 31.3125 C6.0975 29.0025 6.7575 26.6925 7.4375 24.3125 C1.1675 24.3125 -5.1025 24.3125 -11.5625 24.3125 C-11.5625 22.9925 -11.5625 21.6725 -11.5625 20.3125 C-3.9725 20.3125 3.6175 20.3125 11.4375 20.3125 C11.4375 28.544166 11.06198128 32.38726389 5.6015625 38.30078125 C-0.74978883 44.17760633 -6.213083 45.82711993 -14.8203125 45.6171875 C-22.0931106 44.80909882 -26.59242624 40.9432762 -31.0859375 35.3828125 C-35.21644619 29.59135851 -36.43680832 24.25905925 -35.5625 17.3125 C-33.82266992 9.92159393 -29.92063771 4.60733797 -23.625 0.4375 C-16.52863577 -3.22935042 -7.26680016 -3.3581425 0 0 Z " transform="translate(154.5625,77.6875)" style="fill: #EF4D44;"/><path d="M0 0 C1.8359375 1.5078125 1.8359375 1.5078125 3 3 C2.85177161 5.37165422 2.16287464 6.73173589 0.9375 8.75 C-2.24491924 10.8031737 -5.40793041 10.71205627 -9 10 C-11.87403102 8.5947013 -14.43697024 6.90863918 -17 5 C-17.81642254 6.26831693 -18.62799105 7.53975931 -19.4375 8.8125 C-19.88996094 9.52019531 -20.34242188 10.22789062 -20.80859375 10.95703125 C-22.14086339 13.08134552 -22.14086339 13.08134552 -23 16 C-15.15345371 20.89957153 -8.1653956 21.85472716 1 22 C1 22.33 1 22.66 1 23 C0.07767578 23.07347656 0.07767578 23.07347656 -0.86328125 23.1484375 C-1.67152344 23.22320312 -2.47976563 23.29796875 -3.3125 23.375 C-4.11300781 23.44460937 -4.91351563 23.51421875 -5.73828125 23.5859375 C-8.27224441 23.89564426 -8.27224441 23.89564426 -11 26 C-15.60870339 26.75494951 -19.14287866 26.43664672 -23.3125 24.3125 C-27.44607709 20.75570111 -30.05120481 18.15481487 -31 12.6875 C-31.34278272 7.67116751 -30.03122158 3.98749981 -27 0 C-17.99290201 -7.16891472 -9.78062015 -4.51652841 0 0 Z " transform="translate(371,119)" style="fill: #FDF0E9;"/><path d="M0 0 C2.64 0 5.28 0 8 0 C8 10.89 8 21.78 8 33 C12.62 33 17.24 33 22 33 C18.09154307 38.05239554 15.34925399 41.23053577 9 43 C1.7642012 43.86656273 -3.94876429 43.18603129 -10 39 C-12.5 36.875 -12.5 36.875 -14 35 C-14 34.34 -14 33.68 -14 33 C-13.19175781 32.68289062 -12.38351562 32.36578125 -11.55078125 32.0390625 C-4.76807942 29.07725543 -0.52776563 26.66124681 2.296875 19.65234375 C4.22316183 12.38596175 3.44447699 6.60191424 0 0 Z " transform="translate(450,32)" style="fill: #FDF2EC;"/><path d="M0 0 C3.3 0 6.6 0 10 0 C10 9.57 10 19.14 10 29 C13.96 29 17.92 29 22 29 C22 31.97 22 34.94 22 38 C14.74 38 7.48 38 0 38 C0 25.46 0 12.92 0 0 Z " transform="translate(530,26)" style="fill: #ED3E32;"/><path d="M0 0 C3.3 0 6.6 0 10 0 C10 9.57 10 19.14 10 29 C13.96 29 17.92 29 22 29 C22 31.97 22 34.94 22 38 C14.74 38 7.48 38 0 38 C0 25.46 0 12.92 0 0 Z " transform="translate(390,26)" style="fill: #ED3D32;"/><path d="M0 0 C2.31 0 4.62 0 7 0 C7 0.66 7 1.32 7 2 C5.35 2 3.7 2 2 2 C2 2.99 2 3.98 2 5 C3.65 5 5.3 5 7 5 C7 5.33 7 5.66 7 6 C5.35 6 3.7 6 2 6 C2 7.65 2 9.3 2 11 C3.65 11 5.3 11 7 11 C7 12.32 7 13.64 7 15 C7.474375 15.598125 7.94875 16.19625 8.4375 16.8125 C10.62543421 19.87560789 10.86902456 22.2672 11 26 C9.75 28.75 9.75 28.75 8 31 C7.608125 31.5775 7.21625 32.155 6.8125 32.75 C3.8215757 34.81270641 0.54474234 35.11792685 -3 35 C-6.71407837 33.43183358 -8.95858191 31.47041075 -11 28 C-12.3505527 24.43068216 -12.01928781 23.05593466 -10.75 19.375 C-9.32591643 16.62855312 -8.35924074 14.90986155 -6 13 C-6.66 11.35 -7.32 9.7 -8 8 C-8.66 8 -9.32 8 -10 8 C-10.33 9.32 -10.66 10.64 -11 12 C-11 8.37 -11 4.74 -11 1 C-9.35 1 -7.7 1 -6 1 C-4.875 5.75 -4.875 5.75 -6 8 C-4.68799596 9.35432675 -3.35368596 10.68733482 -2 12 C-1.67 12 -1.34 12 -1 12 C-0.67 8.04 -0.34 4.08 0 0 Z " transform="translate(273,133)" style="fill: #FDF1EC;"/><path d="M0 0 C3.81357279 3.23324649 5.83136779 5.24622504 6.3125 10.25 C5.9413702 14.70355765 4.89685726 16.6333821 2 20 C-1.0774905 21.91303463 -2.85809708 22.00253398 -6.5 21.9375 C-10.66166007 20.82276962 -12.27978168 19.28026327 -15 16 C-16.53214888 12.93570224 -16.22938548 10.3834358 -16 7 C-14.58599386 3.54354054 -13.34227609 2.23337006 -10.25 0.125 C-6.23611411 -1.26442204 -4.07284906 -1.18482882 0 0 Z " transform="translate(192,204)" style="fill: #FEF3EE;"/><path d="M0 0 C2.70567626 1.82339052 4.53728718 3.07457436 6 6 C6.54016597 10.50728651 6.60322525 13.94994123 4.3125 17.9375 C0.66907369 21.18704239 -1.59743193 22.02504586 -6.5 21.9375 C-10.81036857 20.78293699 -12.38833491 19.61024292 -15 16 C-16.37725026 11.86824921 -16.26520943 8.8268294 -14.9375 4.6875 C-10.90582608 -0.90482189 -6.49247858 -1.77067598 0 0 Z " transform="translate(240,182)" style="fill: #FEF3EE;"/><path d="M0 0 C3.62342508 1.6470114 6.16816086 3.4327343 8 7 C8.84457478 13.54545455 8.84457478 13.54545455 6.9453125 16.81640625 C5.173471 18.99189211 3.52592891 20.73703554 1 22 C-5.81283762 22.68128376 -5.81283762 22.68128376 -8.82421875 20.953125 C-12.62752744 17.82207185 -13.88663367 16.13366332 -14.375 11.25 C-14.35058775 7.89941932 -13.75601354 6.15105468 -11.625 3.5625 C-7.6742692 -0.29416578 -5.48740163 -0.37202723 0 0 Z " transform="translate(85,195)" style="fill: #FEF3EE;"/><path d="M0 0 C3.03522895 1.63435405 5.28352297 3.055553 7.375 5.8125 C8.31707395 9.10975883 8.41260656 11.5812599 8 15 C6.21523759 17.97239241 4.14791945 20.42604027 1 22 C-2.05920574 22.42071592 -4.9467746 22.48514117 -8 22 C-10.75569447 19.81840855 -12.43588747 18.12822506 -14 15 C-14.57791538 7.9494324 -14.57791538 7.9494324 -12.25 4.125 C-8.3110503 0.40488084 -5.47435346 -0.65692242 0 0 Z " transform="translate(307,47)" style="fill: #FEF3EE;"/><path d="M0 0 C2.58297781 2.18991597 4.48415844 3.96831688 6 7 C6.37712577 11.99691647 6.09290612 14.99067725 3 19 C-1.2258785 21.81725233 -5.03624688 21.79958384 -10 21 C-12.82424288 18.80977082 -14.41508603 17.16982793 -16 14 C-16.40335728 9.80508432 -16.24198067 7.4749991 -14.3125 3.6875 C-10.02671103 -1.29328178 -6.27824274 -1.68167216 0 0 Z " transform="translate(44,167)" style="fill: #FEF3EE;"/><path d="M0 0 C3.63818962 2.50125536 5.22090858 4.67234737 6.0625 8.9375 C6.36744314 13.29736273 4.83880912 15.68805603 2 19 C-2.01858595 21.6790573 -5.27641721 21.69610694 -10 21 C-12.87029869 19.20606332 -14.49131638 18.01736724 -16 15 C-16.53118173 11.20584481 -16.85089348 7.53668822 -14.953125 4.109375 C-10.34719457 -1.47192894 -6.73484245 -1.66335487 0 0 Z " transform="translate(138,209)" style="fill: #FEF3EE;"/><path d="M0 0 C3 2.4375 3 2.4375 5 5 C5.33 5.33 5.66 5.66 6 6 C6.66814301 10.53382759 6.76591603 14.68526346 4 18.5 C0.30678137 21.57768219 -2.24279046 22.3917702 -7 22 C-10.96204597 20.72915507 -12.54092127 19.65159562 -14.9375 16.25 C-16.23752565 12.27345095 -16.09810338 10.02637905 -15 6 C-10.93921707 -0.0256779 -7.06655709 -1.13504285 0 0 Z " transform="translate(301,100)" style="fill: #FEF3ED;"/><path d="M0 0 C3.2042326 1.73147973 4.59075826 2.69414978 5.76171875 6.20703125 C4.77171875 6.53703125 3.78171875 6.86703125 2.76171875 7.20703125 C0.76171875 5.83203125 0.76171875 5.83203125 -1.23828125 4.20703125 C-4.95068207 2.96956431 -8.3800219 2.66361444 -12.23828125 3.20703125 C-14.88526845 4.60388131 -14.88526845 4.60388131 -16.23828125 7.20703125 C-17.07161458 10.70703125 -17.07161458 10.70703125 -16.23828125 14.20703125 C-12.77785014 17.48041203 -9.14907137 18.62119462 -4.67578125 20.14453125 C0.06160045 21.76877641 2.62430187 23.33755043 5.76171875 27.20703125 C6.09171875 27.53703125 6.42171875 27.86703125 6.76171875 28.20703125 C7.13678722 33.73929114 7.06355838 37.5205492 3.76171875 42.20703125 C-0.95577966 45.8654994 -4.77330904 46.90459122 -10.734375 46.66796875 C-14.87318218 45.90606665 -18.08537539 43.95036846 -21.23828125 41.20703125 C-21.89828125 40.21703125 -22.55828125 39.22703125 -23.23828125 38.20703125 C-21.91828125 37.54703125 -20.59828125 36.88703125 -19.23828125 36.20703125 C-18.45453125 37.03203125 -17.67078125 37.85703125 -16.86328125 38.70703125 C-13.27581349 41.69800793 -10.15154972 41.88575292 -5.5859375 41.6171875 C-2.0320171 40.99628627 -0.4095547 40.10206252 1.76171875 37.20703125 C2.36894756 34.24827909 2.15483961 32.30285799 1.76171875 29.20703125 C-0.58594034 25.90740043 -3.82624668 25.11220576 -7.55078125 23.83203125 C-18.43372725 19.81613925 -18.43372725 19.81613925 -21.23828125 14.20703125 C-21.81619663 7.15646365 -21.81619663 7.15646365 -19.48828125 3.33203125 C-14.13598217 -1.72291788 -6.91753557 -2.45071504 0 0 Z " transform="translate(235.23828125,76.79296875)" style="fill: #EE4840;"/><path d="M0 0 C2.4791157 1.77987794 3.45276648 2.89427279 4.4375 5.75 C0.4375 5.75 0.4375 5.75 -1.8125 4.25 C-5.48672345 2.24587812 -8.46049018 2.01395388 -12.5625 2.75 C-15.65124323 4.18651282 -15.65124323 4.18651282 -17.5625 6.75 C-18.3125 9.75 -18.3125 9.75 -17.5625 12.75 C-14.03429044 17.26364465 -9.2656362 18.59594582 -4.05078125 20.37304688 C0.43391601 22.01564557 2.97701536 23.62253701 5.4375 27.75 C6.42548586 32.39934524 6.1056352 36.49390583 3.875 40.6875 C-0.93258073 44.75545292 -5.970035 46.4354163 -12.20703125 46.2421875 C-16.59889524 45.32448458 -20.36436317 42.85740955 -23.5625 39.75 C-23.5625 38.76 -23.5625 37.77 -23.5625 36.75 C-22.0775 36.255 -22.0775 36.255 -20.5625 35.75 C-19.2940625 36.9565625 -19.2940625 36.9565625 -18 38.1875 C-14.50974915 41.33659852 -11.48135664 41.24162081 -6.9296875 41.12109375 C-4.42169588 40.72792675 -2.72107981 40.07177354 -0.5625 38.75 C1.50350952 35.75428619 1.71335062 33.33605804 1.4375 29.75 C1.1075 28.76 0.7775 27.77 0.4375 26.75 C-1.78850492 25.62053284 -1.78850492 25.62053284 -4.5625 24.75 C-6.75143346 23.96230546 -8.93886195 23.17041987 -11.125 22.375 C-12.79755859 21.77558594 -12.79755859 21.77558594 -14.50390625 21.1640625 C-17.66698074 19.70169601 -19.42173514 18.48149478 -21.5625 15.75 C-22.9122311 11.62705089 -23.01624799 7.9095782 -21.4375 3.875 C-15.68365748 -2.64602152 -7.92297432 -2.77999099 0 0 Z " transform="translate(274.5625,77.25)" style="fill: #EE473F;"/><path d="M0 0 C-2.12163674 7.75442524 -4.94566613 15.09581822 -8.0625 22.5 C-8.50916016 23.5828125 -8.95582031 24.665625 -9.41601562 25.78125 C-10.06280273 27.328125 -10.06280273 27.328125 -10.72265625 28.90625 C-11.11203369 29.83759766 -11.50141113 30.76894531 -11.90258789 31.72851562 C-13 34 -13 34 -15 36 C-16.29847916 33.16552595 -17.52918854 30.30618334 -18.75 27.4375 C-19.11738281 26.63763672 -19.48476563 25.83777344 -19.86328125 25.01367188 C-22.31792221 19.11772056 -22.31792221 19.11772056 -21.42480469 15.9777832 C-17.22865187 8.40921897 -9.20741701 0 0 0 Z " transform="translate(549,164)" style="fill: #FDF4EB;"/><path d="M0 0 C3 2.4375 3 2.4375 5 5 C5.33 5.33 5.66 5.66 6 6 C6.23727988 10.99319394 5.68117981 14.18590706 2.4375 18.0625 C-2.05637787 20.59541298 -3.91173733 20.80766074 -9 20 C-11.69105198 17.82425584 -13.45532928 16.08934144 -15 13 C-15.39447548 8.81855989 -15.45035186 6.69053952 -13.125 3.125 C-9.28552361 -0.71447639 -5.23053381 -0.84013755 0 0 Z " transform="translate(438,35)" style="fill: #FEF8F8;"/><path d="M0 0 C3.66304688 2.51834473 4.75360451 4.20283811 6.0625 8.4375 C5.98493382 12.85877235 4.80829096 14.64565246 2 18 C-1.66908557 20.44605705 -4.73618769 20.83946402 -9 20 C-11.69105198 17.82425584 -13.45532928 16.08934144 -15 13 C-15.39447548 8.81855989 -15.45035186 6.69053952 -13.125 3.125 C-9.25991613 -0.74008387 -5.25632224 -0.78981008 0 0 Z " transform="translate(630,35)" style="fill: #FEF9F9;"/><path d="M0 0 C5.6772119 2.51366833 8.84079918 6.921433 11.8125 12.25 C14.83959416 21.80924471 14.52695378 30.4601398 10.375 39.5625 C9.92125 40.366875 9.4675 41.17125 9 42 C8.34 42 7.68 42 7 42 C6.67 43.32 6.34 44.64 6 46 C5.14288628 39.93143728 4.28845561 33.86250519 3.43652344 27.79321289 C3.1462481 25.72800454 2.85523623 23.66289957 2.56347656 21.59790039 C2.14455176 18.6319413 1.72826587 15.66562209 1.3125 12.69921875 C1.18125732 11.7741301 1.05001465 10.84904144 0.91479492 9.8959198 C0.79467041 9.03525406 0.6745459 8.17458832 0.55078125 7.2878418 C0.44419189 6.53061325 0.33760254 5.7733847 0.2277832 4.99320984 C0 3 0 3 0 0 Z " transform="translate(572,169)" style="fill: #FDEDEC;"/><path d="M0 0 C0.89460938 -0.00128906 1.78921875 -0.00257812 2.7109375 -0.00390625 C3.65195312 -0.00003906 4.59296875 0.00382812 5.5625 0.0078125 C6.97402344 0.00201172 6.97402344 0.00201172 8.4140625 -0.00390625 C9.75597656 -0.00197266 9.75597656 -0.00197266 11.125 0 C11.95128906 0.00112793 12.77757812 0.00225586 13.62890625 0.00341797 C15.5625 0.1328125 15.5625 0.1328125 16.5625 1.1328125 C16.94520052 6.1079193 16.73338582 9.19654045 13.5625 13.1328125 C11.1925673 15.22392958 9.55327013 16.08850257 6.37890625 16.23046875 C2.53199614 15.97148137 0.18837754 15.60222065 -2.9375 13.2578125 C-5.72861913 9.30372706 -5.61208804 5.84668956 -5.4375 1.1328125 C-3.84812444 -0.45656306 -2.19850154 0.00300107 0 0 Z " transform="translate(287.4375,-0.1328125)" style="fill: #FEF3ED;"/><path d="M0 0 C2 1.375 2 1.375 3 3 C3 3.66 3 4.32 3 5 C3.66 5.33 4.32 5.66 5 6 C4.67 6.33 4.34 6.66 4 7 C9.445 7.495 9.445 7.495 15 8 C15 8.33 15 8.66 15 9 C8.73 9 2.46 9 -4 9 C-4 11.31 -4 13.62 -4 16 C-1.36 16 1.28 16 4 16 C3.14382686 18.71121495 2.54750525 20.55388461 0.3125 22.375 C-3.15005353 23.31082528 -5.55018394 22.92405787 -9 22 C-12.52571772 18.47428228 -13.8439279 15.65436431 -14.3125 10.6875 C-13.94446535 6.34469118 -12.71485449 4.35364378 -10 1 C-6.82417369 -0.58791315 -3.45838847 -0.41019741 0 0 Z " transform="translate(754,34)" style="fill: #FCE6E1;"/><path d="M0 0 C4.53937444 0.52041044 4.53937444 0.52041044 6.57739258 2.64233398 C7.01204834 3.33657471 7.4467041 4.03081543 7.89453125 4.74609375 C8.37470703 5.50083984 8.85488281 6.25558594 9.34960938 7.03320312 C9.83236328 7.82662109 10.31511719 8.62003906 10.8125 9.4375 C11.31458984 10.22705078 11.81667969 11.01660156 12.33398438 11.83007812 C16 17.6807398 16 17.6807398 16 20 C16.66 20 17.32 20 18 20 C18.22945312 19.33613281 18.45890625 18.67226562 18.6953125 17.98828125 C20.3858609 14.1162168 22.56077408 10.71281499 24.875 7.1875 C25.30941406 6.49462891 25.74382812 5.80175781 26.19140625 5.08789062 C27.4921875 3.10546875 27.4921875 3.10546875 30 0 C31.32 0 32.64 0 34 0 C32.94663841 3.40520665 31.41428823 5.86983617 29.21484375 8.6171875 C19.73394735 20.74317917 18.17841105 30.79246995 19 46 C17.68 46 16.36 46 15 46 C15.04302246 45.41323486 15.08604492 44.82646973 15.13037109 44.22192383 C16.10138651 27.15293103 11.90544072 17.04326059 1.26928711 3.78979492 C0 2 0 2 0 0 Z " transform="translate(171,76)" style="fill: #EE4940;"/><path d="M0 0 C1.51654976 2.75168587 2.30364962 4.99701281 2.6328125 8.1171875 C2.71660156 8.88933594 2.80039062 9.66148437 2.88671875 10.45703125 C2.96535156 11.25496094 3.04398438 12.05289063 3.125 12.875 C3.21136719 13.66519531 3.29773438 14.45539063 3.38671875 15.26953125 C4.59620014 26.80759972 4.59620014 26.80759972 3 30 C-1.95 30 -6.9 30 -12 30 C-9.86437671 23.39165623 -7.46861456 16.94128452 -4.875 10.5 C-4.51535156 9.59507812 -4.15570312 8.69015625 -3.78515625 7.7578125 C-3.26888672 6.47003906 -3.26888672 6.47003906 -2.7421875 5.15625 C-2.27594971 3.99319336 -2.27594971 3.99319336 -1.80029297 2.80664062 C-1 1 -1 1 0 0 Z " transform="translate(556,194)" style="fill: #FDF1E8;"/><path d="M0 0 C4.95 0 9.9 0 15 0 C15 18.81 15 37.62 15 57 C14.34 57 13.68 57 13 57 C13 38.85 13 20.7 13 2 C9.04 2 5.08 2 1 2 C1 20.15 1 38.3 1 57 C0.67 57 0.34 57 0 57 C0 38.19 0 19.38 0 0 Z " transform="translate(446,83)" style="fill: #F15F32;"/><path d="M0 0 C0.99 0.495 0.99 0.495 2 1 C2.66 0.67 3.32 0.34 4 0 C5.88838218 -0.0162697 7.7775581 0.03534355 9.6640625 0.12109375 C10.78554688 0.16943359 11.90703125 0.21777344 13.0625 0.26757812 C14.8259375 0.35168945 14.8259375 0.35168945 16.625 0.4375 C17.80835938 0.48970703 18.99171875 0.54191406 20.2109375 0.59570312 C23.14087561 0.72566006 26.07049673 0.86063528 29 1 C29 1.33 29 1.66 29 2 C22.73 2 16.46 2 10 2 C10 4.31 10 6.62 10 9 C12.64 9 15.28 9 18 9 C17.14382686 11.71121495 16.54750525 13.55388461 14.3125 15.375 C10.79924836 16.32452747 8.50016009 15.98250108 5 15 C1.79387803 12.27138555 0.22718321 10.78833963 -0.3046875 6.6015625 C-0.31170437 4.37721322 -0.22124648 2.21246484 0 0 Z " transform="translate(357,41)" style="fill: #FCE2DD;"/><path d="M0 0 C0.52207031 0.3609375 1.04414063 0.721875 1.58203125 1.09375 C7.67650593 4.93615085 12.83262524 6.33298815 20 5 C23.23721696 3.64139954 26.11524516 1.99439841 29 0 C28.24298748 4.43817144 27.2405433 6.7594567 24 10 C19.29093687 12.77003713 15.52650727 13.53329002 10.21484375 12.70703125 C6.30872875 11.46010565 3.61417669 9.10433482 1 6 C-0.4375 3.125 -0.4375 3.125 -1 1 C-0.67 0.67 -0.34 0.34 0 0 Z " transform="translate(352,59)" style="fill: #FDF1EA;"/><path d="M0 0 C2.5 0.5 2.5 0.5 4.3125 1.9375 C6.09236393 5.77825901 6.05735728 9.33890798 5.5 13.5 C4.3125 16.0625 4.3125 16.0625 2.5 17.5 C0 18.0625 0 18.0625 -2.5 17.5 C-5.06807522 14.66626183 -5.71502349 12.15869271 -5.875 8.4375 C-5.42340018 3.69570191 -4.95885696 0.99177139 0 0 Z " transform="translate(689.5,255.5)" style="fill: #F05544;"/><path d="M0 0 C4.39718646 1.09929662 4.79997334 1.55450729 7.25 5.0625 C7.77078125 5.79597656 8.2915625 6.52945312 8.828125 7.28515625 C9.21484375 7.85105469 9.6015625 8.41695313 10 9 C10.33 6.03 10.66 3.06 11 0 C11.99 0 12.98 0 14 0 C14 5.61 14 11.22 14 17 C13.01 17 12.02 17 11 17 C9.17578125 14.8125 9.17578125 14.8125 7.3125 12 C6.68988281 11.071875 6.06726563 10.14375 5.42578125 9.1875 C4.72001953 8.1046875 4.72001953 8.1046875 4 7 C3.67 10.3 3.34 13.6 3 17 C2.01 17 1.02 17 0 17 C0 11.39 0 5.78 0 0 Z " transform="translate(593,256)" style="fill: #EF5047;"/><path d="M0 0 C2.48472937 3.72709406 2.26140098 5.47050712 1.671875 9.765625 C0.48102918 13.72587969 -1.45145429 14.95276209 -5 17 C-7.875 16.8125 -7.875 16.8125 -10 16 C-9.51455533 9.08241343 -8.31844652 0 0 0 Z " transform="translate(442,38)" style="fill: #FDF1E8;"/><path d="M0 0 C0.33 0 0.66 0 1 0 C2.02375448 2.99301468 2.82457565 5.83172996 3 9 C0.09139654 13.02071655 -3.3638338 15.57408879 -8.296875 16.37109375 C-14.75353098 16.54587584 -19.07718967 15.28332762 -24 11 C-24.66 10.01 -25.32 9.02 -26 8 C-24.68 7.34 -23.36 6.68 -22 6 C-21.21625 6.825 -20.4325 7.65 -19.625 8.5 C-16.03593152 11.49231125 -12.91085399 11.67543291 -8.34375 11.4140625 C-4.84579428 10.79609032 -3.20810521 9.77793881 -1 7 C-0.10944264 3.35817665 -0.10944264 3.35817665 0 0 Z " transform="translate(238,107)" style="fill: #EF554D;"/><path d="M0 0 C2.9375 0.75 2.9375 0.75 4.9375 2.75 C5.3125 6.1875 5.3125 6.1875 4.9375 9.75 C3.25 11.75 3.25 11.75 0.9375 12.75 C-1.8626969 12.61340503 -3.54327872 12.06153277 -5.9375 10.625 C-7.0625 8.75 -7.0625 8.75 -6.9375 5.1875 C-5.80428594 0.73558762 -4.63977455 -0.37875711 0 0 Z " transform="translate(252.0625,133.25)" style="fill: #DDA1A3;"/><path d="M0 0 C0.99 0 1.98 0 3 0 C4.65 4.95 6.3 9.9 8 15 C7.01 15.33 6.02 15.66 5 16 C4.67 15.01 4.34 14.02 4 13 C2.02 13 0.04 13 -2 13 C-2.33 13.99 -2.66 14.98 -3 16 C-3.99 16 -4.98 16 -6 16 C-4.43551329 10.3856009 -2.83604813 5.13189662 0 0 Z " transform="translate(565,256)" style="fill: #EE4A41;"/><path d="M0 0 C2.625 0.25 2.625 0.25 4.4375 1.4375 C6.08867863 3.95772002 6.11966958 5.2819825 5.625 8.25 C3.625 11.0625 3.625 11.0625 1.625 13.25 C2.945 13.58 4.265 13.91 5.625 14.25 C5.625 14.91 5.625 15.57 5.625 16.25 C2.325 16.25 -0.975 16.25 -4.375 16.25 C-3.941875 15.63511719 -3.50875 15.02023437 -3.0625 14.38671875 C-2.505625 13.57847656 -1.94875 12.77023437 -1.375 11.9375 C-0.5396875 10.73673828 -0.5396875 10.73673828 0.3125 9.51171875 C1.87595964 7.25336982 1.87595964 7.25336982 1.625 4.25 C0.965 4.25 0.305 4.25 -0.375 4.25 C-0.705 4.91 -1.035 5.57 -1.375 6.25 C-2.695 6.25 -4.015 6.25 -5.375 6.25 C-3.09651899 0.32594937 -3.09651899 0.32594937 0 0 Z " transform="translate(720.375,255.75)" style="fill: #EF4F41;"/><path d="M0 0 C6.72 0.72 6.72 0.72 8 2 C8.61317388 7.27329537 7.16733542 9.84287226 4 14 C5.32 14 6.64 14 8 14 C8 14.66 8 15.32 8 16 C4.7 16 1.4 16 -2 16 C-1.566875 15.38511719 -1.13375 14.77023437 -0.6875 14.13671875 C0.1478125 12.92435547 0.1478125 12.92435547 1 11.6875 C1.8353125 10.48673828 1.8353125 10.48673828 2.6875 9.26171875 C4.25095964 7.00336982 4.25095964 7.00336982 4 4 C3.34 4 2.68 4 2 4 C1.67 4.66 1.34 5.32 1 6 C0.01 6 -0.98 6 -2 6 C-1.125 1.125 -1.125 1.125 0 0 Z " transform="translate(749,256)" style="fill: #EE4940;"/><path d="M0 0 C2.5 0.25 2.5 0.25 4.5 2.25 C5.05881444 6.34797257 4.6370529 8.01872323 2.5 11.625 C1.84 12.49125 1.18 13.3575 0.5 14.25 C1.82 14.25 3.14 14.25 4.5 14.25 C4.5 14.91 4.5 15.57 4.5 16.25 C1.53 16.25 -1.44 16.25 -4.5 16.25 C-2.5 12.25 -2.5 12.25 -0.875 9.6875 C0.74566059 7.28094021 0.74566059 7.28094021 0.5 4.25 C-0.16 4.25 -0.82 4.25 -1.5 4.25 C-1.83 4.91 -2.16 5.57 -2.5 6.25 C-3.49 6.25 -4.48 6.25 -5.5 6.25 C-4.75451591 2.52257953 -4.15390859 0.41539086 0 0 Z " transform="translate(450.5,255.75)" style="fill: #EF534B;"/><path d="M0 0 C2.5 0.25 2.5 0.25 4.5 2.25 C4.98602588 6.54322859 4.96241608 8.57082639 2.5 12.1875 C1.84 12.868125 1.18 13.54875 0.5 14.25 C1.82 14.25 3.14 14.25 4.5 14.25 C4.5 14.91 4.5 15.57 4.5 16.25 C1.53 16.25 -1.44 16.25 -4.5 16.25 C-2.5 12.25 -2.5 12.25 -0.9375 10.3125 C0.70628942 7.95401953 1.10798393 6.07251571 1.5 3.25 C-1.61785113 3.89644661 -1.61785113 3.89644661 -2.5 6.25 C-3.49 6.25 -4.48 6.25 -5.5 6.25 C-4.75451591 2.52257953 -4.15390859 0.41539086 0 0 Z " transform="translate(658.5,255.75)" style="fill: #EF4D45;"/><path d="M0 0 C3.63 0 7.26 0 11 0 C9.3341708 6.16356805 6.12194714 11.48259656 3 17 C2.01 16.67 1.02 16.34 0 16 C1.41292095 11.1725201 3.42974154 7.2837641 6 3 C4.02 3 2.04 3 0 3 C0 2.01 0 1.02 0 0 Z " transform="translate(388,256)" style="fill: #EF5246;"/><path d="M0 0 C1.98 0 3.96 0 6 0 C6 5.61 6 11.22 6 17 C4.68 17 3.36 17 2 17 C2 12.38 2 7.76 2 3 C1.34 3 0.68 3 0 3 C0 2.01 0 1.02 0 0 Z " transform="translate(478,256)" style="fill: #F5918B;"/><path d="M0 0 C2.5 0.25 2.5 0.25 4.5 2.25 C4.75 4.75 4.75 4.75 4.5 7.25 C2.5 9.25 2.5 9.25 0 9.5 C-2.5 9.25 -2.5 9.25 -4.5 7.25 C-4.75 4.75 -4.75 4.75 -4.5 2.25 C-2.5 0.25 -2.5 0.25 0 0 Z " transform="translate(82.5,59.75)" style="fill: #B32D31;"/><path d="M0 0 C6.875 5.75 6.875 5.75 8 8 C8.33 5.36 8.66 2.72 9 0 C9.66 0 10.32 0 11 0 C11 4.29 11 8.58 11 13 C10.34 13 9.68 13 9 13 C7.4921875 11.46875 7.4921875 11.46875 5.875 9.5 C5.33617187 8.8503125 4.79734375 8.200625 4.2421875 7.53125 C3.83226562 7.0259375 3.42234375 6.520625 3 6 C2.67 7.98 2.34 9.96 2 12 C1.34 12 0.68 12 0 12 C0 8.04 0 4.08 0 0 Z " transform="translate(190,133)" style="fill: #C05154;"/><path d="M0 0 C7.59 0 15.18 0 23 0 C22.67 0.99 22.34 1.98 22 3 C14.74 3 7.48 3 0 3 C0 2.01 0 1.02 0 0 Z " transform="translate(143,98)" style="fill: #EE4940;"/><path d="M0 0 C1.9375 0.75 1.9375 0.75 3.9375 2.75 C3.38194444 7.30555556 3.38194444 7.30555556 1.9375 8.75 C-0.5 8.9375 -0.5 8.9375 -3.0625 8.75 C-5.0625 6.75 -5.0625 6.75 -5.375 4.25 C-5.271875 3.425 -5.16875 2.6 -5.0625 1.75 C-2.0625 -0.25 -2.0625 -0.25 0 0 Z " transform="translate(78.0625,72.25)" style="fill: #F5982E;"/><path d="M0 0 C5.625 -0.25 5.625 -0.25 9 2 C8.125 6.875 8.125 6.875 7 8 C4.66702567 8.04092937 2.33294775 8.04241723 0 8 C0 5.36 0 2.72 0 0 Z " transform="translate(468,48)" style="fill: #FCE2E0;"/><path d="M0 0 C4.55555556 0.55555556 4.55555556 0.55555556 6 2 C6.1875 4.4375 6.1875 4.4375 6 7 C5.34 7.66 4.68 8.32 4 9 C0.70285207 8.67028521 -0.6226839 8.3773161 -3 6 C-2.63318342 3.06546739 -2.13562754 2.13562754 0 0 Z " transform="translate(97,40)" style="fill: #EF4C43;"/><path d="M0 0 C4.55555556 0.55555556 4.55555556 0.55555556 6 2 C6.1875 4.4375 6.1875 4.4375 6 7 C4 9 4 9 1.4375 9.1875 C-1 9 -1 9 -2 8 C-2.1875 5.0625 -2.1875 5.0625 -2 2 C-1.34 1.34 -0.68 0.68 0 0 Z " transform="translate(88,49)" style="fill: #F5962C;"/><path d="M0 0 C0.99 0.804375 1.98 1.60875 3 2.4375 C6.99119164 5.32682892 10.13291572 5.74383767 15 6 C15 6.33 15 6.66 15 7 C13.35 7.33 11.7 7.66 10 8 C12.97 8.495 12.97 8.495 16 9 C16 9.33 16 9.66 16 10 C8.98788076 10.66782088 5.43143842 9.60638044 -0.34765625 5.60546875 C-0.89292969 5.07566406 -1.43820313 4.54585938 -2 4 C-2 3.01 -2 2.02 -2 1 C-1.34 0.67 -0.68 0.34 0 0 Z " transform="translate(253,113)" style="fill: #F1625B;"/><path d="M0 0 C0.99 0 1.98 0 3 0 C3.08097324 2.27024968 3.13917704 4.54132075 3.1875 6.8125 C3.22230469 8.07707031 3.25710938 9.34164063 3.29296875 10.64453125 C3 14 3 14 1.65625 15.96875 C0 17 0 17 -2.6875 16.6875 C-3.450625 16.460625 -4.21375 16.23375 -5 16 C-4 14 -4 14 -1 13 C-0.67 8.71 -0.34 4.42 0 0 Z " transform="translate(536,256)" style="fill: #EF5148;"/><path d="M0 0 C0.33 0.66 0.66 1.32 1 2 C-0.134375 1.979375 -1.26875 1.95875 -2.4375 1.9375 C-5.81575674 1.58422523 -5.81575674 1.58422523 -7 3 C-7.04063832 4.66617115 -7.042721 6.33388095 -7 8 C-5.35 8.33 -3.7 8.66 -2 9 C-1.67 8.34 -1.34 7.68 -1 7 C-1.66 7 -2.32 7 -3 7 C-3 6.34 -3 5.68 -3 5 C-1.68 5 -0.36 5 1 5 C0.25 9.75 0.25 9.75 -2 12 C-5 11.8125 -5 11.8125 -8 11 C-10.31361802 7.52957297 -10.51020728 6.08165827 -10 2 C-6.95805567 -1.62693363 -4.34226025 -1.25443074 0 0 Z " transform="translate(215,134)" style="fill: #BF4C50;"/><path d="M0 0 C3.125 0.375 3.125 0.375 6 1 C6.04254356 2.99954746 6.04080783 5.00041636 6 7 C5 8 5 8 1.9375 8.0625 C0.968125 8.041875 -0.00125 8.02125 -1 8 C-1.625 5.125 -1.625 5.125 -2 2 C-1.34 1.34 -0.68 0.68 0 0 Z " transform="translate(72,85)" style="fill: #EE473E;"/><path d="M0 0 C3 1 3 1 4.16796875 3.28515625 C4.50441406 4.20167969 4.84085938 5.11820313 5.1875 6.0625 C5.53167969 6.98160156 5.87585938 7.90070313 6.23046875 8.84765625 C6.48441406 9.55792969 6.73835937 10.26820313 7 11 C6.34 11 5.68 11 5 11 C5 10.34 5 9.68 5 9 C2.69 9 0.38 9 -2 9 C-2 9.66 -2 10.32 -2 11 C-2.66 11 -3.32 11 -4 11 C-2.7874262 7.27566618 -1.49140021 3.62197194 0 0 Z " transform="translate(224,134)" style="fill: #BA4044;"/><path d="M0 0 C2.5 0.25 2.5 0.25 4.5 2.25 C4.13318342 5.18453261 3.63562754 6.11437246 1.5 8.25 C-1.125 7.875 -1.125 7.875 -3.5 7.25 C-4.125 4.875 -4.125 4.875 -4.5 2.25 C-2.5 0.25 -2.5 0.25 0 0 Z " transform="translate(73.5,97.75)" style="fill: #F5982F;"/><path d="M0 0 C1.65 0 3.3 0 5 0 C5 5.28 5 10.56 5 16 C4.01 16 3.02 16 2 16 C2 11.71 2 7.42 2 3 C1.34 3 0.68 3 0 3 C0 2.01 0 1.02 0 0 Z " transform="translate(359,256)" style="fill: #EE4A41;"/><path d="M0 0 C2.625 0.375 2.625 0.375 5 1 C5.625 3.375 5.625 3.375 6 6 C4 8 4 8 1.4375 8.1875 C-1 8 -1 8 -2 7 C-2.1875 4.5625 -2.1875 4.5625 -2 2 C-1.34 1.34 -0.68 0.68 0 0 Z " transform="translate(107,33)" style="fill: #B32C30;"/><path d="M0 0 C2.97 0.495 2.97 0.495 6 1 C6 2.98 6 4.96 6 7 C4.68 7 3.36 7 2 7 C2 8.98 2 10.96 2 13 C1.34 13 0.68 13 0 13 C0 8.71 0 4.42 0 0 Z " transform="translate(235,133)" style="fill: #CA6C6E;"/><path d="M0 0 C-0.33 2.64 -0.66 5.28 -1 8 C-1.99 8.33 -2.98 8.66 -4 9 C-4 6.36 -4 3.72 -4 1 C-10.27 1 -16.54 1 -23 1 C-23 0.67 -23 0.34 -23 0 C-19.72966072 -0.19689005 -16.45872059 -0.38089008 -13.1875 -0.5625 C-12.25873047 -0.61857422 -11.32996094 -0.67464844 -10.37304688 -0.73242188 C-9.48037109 -0.78076172 -8.58769531 -0.82910156 -7.66796875 -0.87890625 C-6.84578857 -0.9260376 -6.0236084 -0.97316895 -5.17651367 -1.02172852 C-3 -1 -3 -1 0 0 Z " transform="translate(166,101)" style="fill: #F05F57;"/><path d="M0 0 C0.66 0.99 1.32 1.98 2 3 C3.64488294 4.68816933 5.31337542 6.35353315 7 8 C8.33333333 9.33333333 9.66666667 10.66666667 11 12 C9.375 12.75 9.375 12.75 7 13 C3.96737867 11.24107963 1.47809712 9.47809712 -1 7 C-0.625 3.375 -0.625 3.375 0 0 Z " transform="translate(216,86)" style="fill: #EE433A;"/><path d="M0 0 C0.66 0 1.32 0 2 0 C2.99 3.63 3.98 7.26 5 11 C2.36 11 -0.28 11 -3 11 C-2.69078116 9.54096742 -2.37751201 8.08279278 -2.0625 6.625 C-1.88847656 5.81289063 -1.71445312 5.00078125 -1.53515625 4.1640625 C-1 2 -1 2 0 0 Z " transform="translate(507,39)" style="fill: #FBDAD8;"/><path d="M0 0 C2.5625 0.1875 2.5625 0.1875 4.5625 2.1875 C4.19568342 5.12203261 3.69812754 6.05187246 1.5625 8.1875 C-1.97321429 7.65178571 -1.97321429 7.65178571 -3.4375 6.1875 C-3.5625 3.6875 -3.5625 3.6875 -3.4375 1.1875 C-2.4375 0.1875 -2.4375 0.1875 0 0 Z " transform="translate(74.4375,109.8125)" style="fill: #EF4C44;"/><path d="M0 0 C1.65 0 3.3 0 5 0 C6.125 4.75 6.125 4.75 5 7 C5.89163577 9.11683841 5.89163577 9.11683841 7 11 C5.68 10.34 4.36 9.68 3 9 C3 8.34 3 7.68 3 7 C2.34 7 1.68 7 1 7 C0.67 8.32 0.34 9.64 0 11 C0 7.37 0 3.74 0 0 Z " transform="translate(262,134)" style="fill: #C3595C;"/><path d="M0 0 C2 2 2 2 2 7 C-4.6 7 -11.2 7 -18 7 C-18 6.34 -18 5.68 -18 5 C-9.585 4.505 -9.585 4.505 -1 4 C-0.67 2.68 -0.34 1.36 0 0 Z " transform="translate(580,230)" style="fill: #F69A33;"/><path d="M0 0 C0.33 0 0.66 0 1 0 C1 1.65 1 3.3 1 5 C3.62538284 4.85946128 6.25017427 4.71281053 8.875 4.5625 C9.62136719 4.52318359 10.36773437 4.48386719 11.13671875 4.44335938 C15.19986864 4.28426376 15.19986864 4.28426376 19 3 C19 4.32 19 5.64 19 7 C12.4 7 5.8 7 -1 7 C-0.67 4.69 -0.34 2.38 0 0 Z " transform="translate(488,230)" style="fill: #F6982F;"/><path d="M0 0 C1.98 0.495 1.98 0.495 4 1 C4.125 8.75 4.125 8.75 3 11 C2.01 11 1.02 11 0 11 C-1.49297212 8.01405576 -1.11755228 5.29146376 -1 2 C-0.67 1.34 -0.34 0.68 0 0 Z " transform="translate(688,259)" style="fill: #FCE9DF;"/><path d="M0 0 C1.67542976 0.28604898 3.34385343 0.61781233 5 1 C5 2.98 5 4.96 5 7 C2.625 7.625 2.625 7.625 0 8 C-0.66 7.34 -1.32 6.68 -2 6 C-1.44444444 1.44444444 -1.44444444 1.44444444 0 0 Z " transform="translate(129,24)" style="fill: #F59A33;"/><path d="M0 0 C2 3 2 3 2 6 C-4.6 6 -11.2 6 -18 6 C-17.67 5.01 -17.34 4.02 -17 3 C-11.39 3.33 -5.78 3.66 0 4 C0 2.68 0 1.36 0 0 Z " transform="translate(679,231)" style="fill: #F6982E;"/><path d="M0 0 C2.45823172 3.68734758 3.01242616 6.69699971 4 11 C2.68 10.67 1.36 10.34 0 10 C-0.33 8.68 -0.66 7.36 -1 6 C-2.32 6 -3.64 6 -5 6 C-4.67 4.35 -4.34 2.7 -4 1 C-3.01 1.33 -2.02 1.66 -1 2 C-0.67 1.34 -0.34 0.68 0 0 Z " transform="translate(569,261)" style="fill: #F27069;"/><path d="M0 0 C2.5 0.125 2.5 0.125 3.5 1.125 C3.625 3.625 3.625 3.625 3.5 6.125 C2.5 7.125 2.5 7.125 0 7.25 C-2.5 7.125 -2.5 7.125 -3.5 6.125 C-3.625 3.625 -3.625 3.625 -3.5 1.125 C-2.5 0.125 -2.5 0.125 0 0 Z " transform="translate(119.5,27.875)" style="fill: #F59222;"/><path d="M0 0 C2.31 0 4.62 0 7 0 C7 0.66 7 1.32 7 2 C5.35 2 3.7 2 2 2 C2 2.99 2 3.98 2 5 C3.65 5 5.3 5 7 5 C7 5.33 7 5.66 7 6 C5.35 6 3.7 6 2 6 C2 7.65 2 9.3 2 11 C3.65 11 5.3 11 7 11 C7 11.33 7 11.66 7 12 C4.69 12 2.38 12 0 12 C0 8.04 0 4.08 0 0 Z " transform="translate(273,133)" style="fill: #BE4B4E;"/><path d="M0 0 C-0.33 0.66 -0.66 1.32 -1 2 C-1.99 1.67 -2.98 1.34 -4 1 C-4 1.99 -4 2.98 -4 4 C-1.525 4.99 -1.525 4.99 1 6 C0.67 7.65 0.34 9.3 0 11 C-1.8125 11.625 -1.8125 11.625 -4 12 C-4.99 11.34 -5.98 10.68 -7 10 C-7 9.34 -7 8.68 -7 8 C-5.02 8.66 -3.04 9.32 -1 10 C-1 8.68 -1 7.36 -1 6 C-3.475 5.01 -3.475 5.01 -6 4 C-6 2.68 -6 1.36 -6 0 C-3.50907189 -1.24546405 -2.58919267 -0.7767578 0 0 Z " transform="translate(178,134)" style="fill: #B93D40;"/><path d="M0 0 C1.67542976 0.28604898 3.34385343 0.61781233 5 1 C5.38218767 2.65614657 5.71395102 4.32457024 6 6 C5 7 5 7 2.5 7.125 C0 7 0 7 -1 6 C-1.125 3.5 -1.125 3.5 -1 1 C-0.67 0.67 -0.34 0.34 0 0 Z " transform="translate(80,132)" style="fill: #F0564F;"/><path d="M0 0 C1.66611905 -0.042721 3.33382885 -0.04063832 5 0 C6 1 6 1 6.0625 3.5625 C6.041875 4.366875 6.02125 5.17125 6 6 C3.625 6.625 3.625 6.625 1 7 C0.34 6.34 -0.32 5.68 -1 5 C-0.625 2.375 -0.625 2.375 0 0 Z " transform="translate(75,122)" style="fill: #EE453D;"/><path d="M0 0 C1.32 0.66 2.64 1.32 4 2 C3.525625 2.556875 3.05125 3.11375 2.5625 3.6875 C0.87604004 6.18346074 0.41046893 8.0446237 0 11 C-0.66 11 -1.32 11 -2 11 C-2.66 11.66 -3.32 12.32 -4 13 C-4.49230769 5.73846154 -4.49230769 5.73846154 -2 2 C-1.34 1.34 -0.68 0.68 0 0 Z " transform="translate(218,78)" style="fill: #EF5149;"/><path d="M0 0 C1.2065625 0.0309375 1.2065625 0.0309375 2.4375 0.0625 C3.0625 2.4375 3.0625 2.4375 3.4375 5.0625 C2.7775 5.7225 2.1175 6.3825 1.4375 7.0625 C-1.1875 6.6875 -1.1875 6.6875 -3.5625 6.0625 C-3.605221 4.39638095 -3.60313832 2.72867115 -3.5625 1.0625 C-2.5625 0.0625 -2.5625 0.0625 0 0 Z " transform="translate(142.5625,22.9375)" style="fill: #D3D4D5;"/><path d="M0 0 C1.2065625 0.0309375 1.2065625 0.0309375 2.4375 0.0625 C3.0625 2.4375 3.0625 2.4375 3.4375 5.0625 C2.7775 5.7225 2.1175 6.3825 1.4375 7.0625 C-0.6875 6.6875 -0.6875 6.6875 -2.5625 6.0625 C-2.94468767 4.40635343 -3.27645102 2.73792976 -3.5625 1.0625 C-2.5625 0.0625 -2.5625 0.0625 0 0 Z " transform="translate(88.5625,141.9375)" style="fill: #B63438;"/><path d="M0 0 C2.0625 0.4375 2.0625 0.4375 4 1 C4.625 2.875 4.625 2.875 5 5 C4.34 5.66 3.68 6.32 3 7 C0.375 6.625 0.375 6.625 -2 6 C-1.125 1.125 -1.125 1.125 0 0 Z " transform="translate(92,67)" style="fill: #F69F3C;"/><path d="M0 0 C1.66611905 -0.042721 3.33382885 -0.04063832 5 0 C6 1 6 1 6.0625 3.5625 C6.041875 4.366875 6.02125 5.17125 6 6 C4.02 6.33 2.04 6.66 0 7 C0 4.69 0 2.38 0 0 Z " transform="translate(468,34)" style="fill: #FDEBEA;"/><path d="M0 0 C1.2065625 0.0309375 1.2065625 0.0309375 2.4375 0.0625 C2.81968767 1.71864657 3.15145102 3.38707024 3.4375 5.0625 C2.4375 6.0625 2.4375 6.0625 -0.125 6.125 C-1.3315625 6.0940625 -1.3315625 6.0940625 -2.5625 6.0625 C-2.94468767 4.40635343 -3.27645102 2.73792976 -3.5625 1.0625 C-2.5625 0.0625 -2.5625 0.0625 0 0 Z " transform="translate(153.5625,22.9375)" style="fill: #B42E31;"/><path d="M0 0 C3.63 0 7.26 0 11 0 C10.67 1.32 10.34 2.64 10 4 C8.68 4.33 7.36 4.66 6 5 C6 4.34 6 3.68 6 3 C4.02 3 2.04 3 0 3 C0 2.01 0 1.02 0 0 Z " transform="translate(388,256)" style="fill: #F05B4E;"/><path d="M0 0 C2.125 0.375 2.125 0.375 4 1 C4.625 2.875 4.625 2.875 5 5 C4.34 5.66 3.68 6.32 3 7 C0.875 6.625 0.875 6.625 -1 6 C-1.625 4.125 -1.625 4.125 -2 2 C-1.34 1.34 -0.68 0.68 0 0 Z " transform="translate(94,150)" style="fill: #EF5148;"/><path d="M0 0 C2.125 0.375 2.125 0.375 4 1 C4.625 2.875 4.625 2.875 5 5 C4.34 5.66 3.68 6.32 3 7 C0.875 6.625 0.875 6.625 -1 6 C-1.625 4.125 -1.625 4.125 -2 2 C-1.34 1.34 -0.68 0.68 0 0 Z " transform="translate(88,76)" style="fill: #D3D5D6;"/><path d="M0 0 C2.125 0.375 2.125 0.375 4 1 C4.625 2.875 4.625 2.875 5 5 C4.34 5.66 3.68 6.32 3 7 C0.875 6.625 0.875 6.625 -1 6 C-1.625 4.125 -1.625 4.125 -2 2 C-1.34 1.34 -0.68 0.68 0 0 Z " transform="translate(97,59)" style="fill: #B63539;"/><path d="M0 0 C1.2684375 0.12375 1.2684375 0.12375 2.5625 0.25 C3.2225 1.24 3.8825 2.23 4.5625 3.25 C3.758125 3.37375 2.95375 3.4975 2.125 3.625 C0.8565625 3.934375 0.8565625 3.934375 -0.4375 4.25 C-0.7675 4.91 -1.0975 5.57 -1.4375 6.25 C-2.7575 6.25 -4.0775 6.25 -5.4375 6.25 C-3.15823922 0.32392197 -3.15823922 0.32392197 0 0 Z " transform="translate(720.4375,255.75)" style="fill: #EF584A;"/><path d="M0 0 C2.125 0.375 2.125 0.375 4 1 C4 2.65 4 4.3 4 6 C2.35 6.33 0.7 6.66 -1 7 C-1.625 4.625 -1.625 4.625 -2 2 C-1.34 1.34 -0.68 0.68 0 0 Z " transform="translate(163,24)" style="fill: #F5982E;"/><path d="M0 0 C1.32 0 2.64 0 4 0 C4 4.95 4 9.9 4 15 C3.34 15 2.68 15 2 15 C2 10.71 2 6.42 2 2 C1.34 2 0.68 2 0 2 C0 1.34 0 0.68 0 0 Z " transform="translate(479,257)" style="fill: #EC342A;"/><path d="M0 0 C1.31896465 0.92838287 2.62998689 1.86805732 3.9375 2.8125 C4.66839844 3.33457031 5.39929688 3.85664062 6.15234375 4.39453125 C8 6 8 6 9 9 C5.72965541 9.36337162 4.39116247 9.28544288 1.6875 7.3125 C-0.31408296 4.56959002 -0.1478448 3.30186721 0 0 Z " transform="translate(125,110)" style="fill: #EE443C;"/><path d="M0 0 C4.16943993 0.93599672 5.58410733 1.37616099 8 5 C7.34 5 6.68 5 6 5 C5.67 5.99 5.34 6.98 5 8 C5 7.34 5 6.68 5 6 C4.236875 5.71125 3.47375 5.4225 2.6875 5.125 C0 4 0 4 -3 2 C-2.01 1.34 -1.02 0.68 0 0 Z " transform="translate(270,98)" style="fill: #EF4F47;"/><path d="M0 0 C1.32 0 2.64 0 4 0 C2.68775452 3.93673644 1.08089673 6.22719294 -2 9 C-2.66 8.01 -3.32 7.02 -4 6 C-2.25 3 -2.25 3 0 0 Z " transform="translate(201,76)" style="fill: #EF5149;"/><path d="M0 0 C0 3 0 3 -1 5 C0.32 5 1.64 5 3 5 C3 5.66 3 6.32 3 7 C0.03 7 -2.94 7 -6 7 C-3 1 -3 1 0 0 Z " transform="translate(660,265)" style="fill: #EE4138;"/><path d="M0 0 C2.3828125 -0.29296875 2.3828125 -0.29296875 5.125 -0.1875 C6.03507813 -0.16042969 6.94515625 -0.13335937 7.8828125 -0.10546875 C8.58148438 -0.07066406 9.28015625 -0.03585938 10 0 C10.33 0.66 10.66 1.32 11 2 C8.35541621 3.32229189 6.32238699 3.09677194 3.375 3.0625 C2.37210938 3.05347656 1.36921875 3.04445313 0.3359375 3.03515625 C-0.43492187 3.02355469 -1.20578125 3.01195313 -2 3 C-1.34 2.01 -0.68 1.02 0 0 Z " transform="translate(140,76)" style="fill: #ED4037;"/><path d="M0 0 C2.125 0.9375 2.125 0.9375 4 2 C3.67 3.32 3.34 4.64 3 6 C1.0625 6.5625 1.0625 6.5625 -1 7 C-2 6 -2 6 -2.0625 3.4375 C-2.041875 2.633125 -2.02125 1.82875 -2 1 C-1.34 0.67 -0.68 0.34 0 0 Z " transform="translate(104,52)" style="fill: #EF5048;"/><path d="M0 0 C0.66 0.33 1.32 0.66 2 1 C1.01 3.64 0.02 6.28 -1 9 C-3.97 9 -6.94 9 -10 9 C-10.33 7.68 -10.66 6.36 -11 5 C-6.545 5.99 -6.545 5.99 -2 7 C-1.34 4.69 -0.68 2.38 0 0 Z " transform="translate(639,228)" style="fill: #F6972F;"/><path d="M0 0 C0.99 0 1.98 0 3 0 C3 1.32 3 2.64 3 4 C2.01 4 1.02 4 0 4 C-0.33 5.32 -0.66 6.64 -1 8 C-1.99 8 -2.98 8 -4 8 C-3.67 6.35 -3.34 4.7 -3 3 C-2.34 3 -1.68 3 -1 3 C-0.67 2.01 -0.34 1.02 0 0 Z " transform="translate(113,60)" style="fill: #C66265;"/><path d="M0 0 C2.0625 0.4375 2.0625 0.4375 4 1 C4.5625 2.9375 4.5625 2.9375 5 5 C4 6 4 6 1.4375 6.0625 C0.2309375 6.0315625 0.2309375 6.0315625 -1 6 C-1.042721 4.33388095 -1.04063832 2.66617115 -1 1 C-0.67 0.67 -0.34 0.34 0 0 Z " transform="translate(102,157)" style="fill: #F59830;"/><path d="M0 0 C1.65 0 3.3 0 5 0 C5.625 1.875 5.625 1.875 6 4 C5.34 4.66 4.68 5.32 4 6 C1.875 5.625 1.875 5.625 0 5 C0 3.35 0 1.7 0 0 Z " transform="translate(84,86)" style="fill: #F5982F;"/><path d="M0 0 C4.67692308 1.47692308 4.67692308 1.47692308 6.3125 4.125 C6.539375 4.74375 6.76625 5.3625 7 6 C2.31908701 6 1.37898396 5.00354129 -2 2 C-1.34 1.34 -0.68 0.68 0 0 Z " transform="translate(272,77)" style="fill: #EF4D44;"/><path d="M0 0 C1.65 0.33 3.3 0.66 5 1 C4.67 2.65 4.34 4.3 4 6 C2.35 5.67 0.7 5.34 -1 5 C-0.67 3.35 -0.34 1.7 0 0 Z " transform="translate(110,47)" style="fill: #EF524A;"/><path d="M0 0 C1.67542976 0.28604898 3.34385343 0.61781233 5 1 C4.67 2.65 4.34 4.3 4 6 C2.68 5.67 1.36 5.34 0 5 C-0.5625 3.0625 -0.5625 3.0625 -1 1 C-0.67 0.67 -0.34 0.34 0 0 Z " transform="translate(110,163)" style="fill: #F59A34;"/><path d="M0 0 C1.98 1.65 3.96 3.3 6 5 C4.02 5.99 4.02 5.99 2 7 C0 5.6875 0 5.6875 -2 4 C-2 3.01 -2 2.02 -2 1 C-1.34 0.67 -0.68 0.34 0 0 Z " transform="translate(253,113)" style="fill: #EF4B43;"/><path d="M0 0 C1.67542976 0.28604898 3.34385343 0.61781233 5 1 C4.67 2.32 4.34 3.64 4 5 C2.68 5.33 1.36 5.66 0 6 C-0.38218767 4.34385343 -0.71395102 2.67542976 -1 1 C-0.67 0.67 -0.34 0.34 0 0 Z " transform="translate(84,95)" style="fill: #EF4F47;"/><path d="M0 0 C3.15467773 0.76943359 4.58588104 1.32952169 6.3125 4.125 C6.539375 4.74375 6.76625 5.3625 7 6 C6.01 6.33 5.02 6.66 4 7 C2 5.6875 2 5.6875 0 4 C-0.99 3.34 -1.98 2.68 -3 2 C-2.01 1.34 -1.02 0.68 0 0 Z " transform="translate(234,77)" style="fill: #EF4E46;"/><path d="M0 0 C1.67542976 0.28604898 3.34385343 0.61781233 5 1 C4.67 2.65 4.34 4.3 4 6 C2.68 5.67 1.36 5.34 0 5 C-0.5625 3.0625 -0.5625 3.0625 -1 1 C-0.67 0.67 -0.34 0.34 0 0 Z " transform="translate(172,28)" style="fill: #F5962A;"/><path d="M0 0 C0.33 0.66 0.66 1.32 1 2 C0.67 2.66 0.34 3.32 0 4 C1.32 4 2.64 4 4 4 C4 4.66 4 5.32 4 6 C1.03 6 -1.94 6 -5 6 C-3 2 -3 2 0 0 Z " transform="translate(451,266)" style="fill: #ED3D34;"/><path d="M0 0 C1.2684375 0.12375 1.2684375 0.12375 2.5625 0.25 C4.85263653 3.6852048 4.74092973 5.235331 4.5625 9.25 C3.9025 9.25 3.2425 9.25 2.5625 9.25 C2.315 8.30125 2.0675 7.3525 1.8125 6.375 C0.8767923 3.16306809 0.8767923 3.16306809 -1.5625 1.875 C-2.18125 1.66875 -2.8 1.4625 -3.4375 1.25 C-2.4375 0.25 -2.4375 0.25 0 0 Z " transform="translate(690.4375,256.75)" style="fill: #EF4836;"/><path d="M0 0 C0.66 0 1.32 0 2 0 C2.36923077 5.53846154 2.36923077 5.53846154 0.5 7.875 C0.005 8.24625 -0.49 8.6175 -1 9 C-1.99 8.67 -2.98 8.34 -4 8 C-2.68 5.36 -1.36 2.72 0 0 Z " transform="translate(453,258)" style="fill: #EE4940;"/><path d="M0 0 C2.0625 0.4375 2.0625 0.4375 4 1 C3.67 2.65 3.34 4.3 3 6 C1.68 5.67 0.36 5.34 -1 5 C-1 1 -1 1 0 0 Z " transform="translate(120,167)" style="fill: #F69E3B;"/><path d="M0 0 C0.99 0.33 1.98 0.66 3 1 C3.75 2.9375 3.75 2.9375 4 5 C3.67 5.66 3.34 6.32 3 7 C1.35 6.67 -0.3 6.34 -2 6 C-1.34 4.02 -0.68 2.04 0 0 Z " transform="translate(224,134)" style="fill: #CE787A;"/><path d="M0 0 C1.65 0.33 3.3 0.66 5 1 C4.67 2.32 4.34 3.64 4 5 C2.35 4.67 0.7 4.34 -1 4 C-0.67 2.68 -0.34 1.36 0 0 Z " transform="translate(84,104)" style="fill: #EE4840;"/><path d="M0 0 C2.375 0.25 2.375 0.25 5 1 C6.3125 3.0625 6.3125 3.0625 7 5 C6.34 5 5.68 5 5 5 C4.67 5.99 4.34 6.98 4 8 C0 2.25 0 2.25 0 0 Z " transform="translate(171,76)" style="fill: #F0564E;"/><path d="M0 0 C1.98 0.495 1.98 0.495 4 1 C3.67 2.65 3.34 4.3 3 6 C1.68 5.67 0.36 5.34 -1 5 C-0.67 3.35 -0.34 1.7 0 0 Z " transform="translate(118,42)" style="fill: #F5962A;"/><path d="M0 0 C1.98 0.495 1.98 0.495 4 1 C3.67 2.65 3.34 4.3 3 6 C1.68 5.67 0.36 5.34 -1 5 C-0.67 3.35 -0.34 1.7 0 0 Z " transform="translate(182,32)" style="fill: #EE453D;"/><path d="M0 0 C1.61949011 2.57213134 2.04408751 3.67669159 1.625 6.75 C1.41875 7.4925 1.2125 8.235 1 9 C-0.32 8.67 -1.64 8.34 -3 8 C-1.125 1.125 -1.125 1.125 0 0 Z " transform="translate(556,194)" style="fill: #FCE1CE;"/><path d="M0 0 C-0.33 0.66 -0.66 1.32 -1 2 C-4.63 2 -8.26 2 -12 2 C-8.40939861 -1.59060139 -4.69614193 -1.20757935 0 0 Z " transform="translate(273,120)" style="fill: #ED3C33;"/><path d="M0 0 C2.64 0.66 5.28 1.32 8 2 C6.875 3.5625 6.875 3.5625 5 5 C1.8125 4.6875 1.8125 4.6875 -1 4 C-0.67 2.68 -0.34 1.36 0 0 Z " transform="translate(226,96)" style="fill: #F0564E;"/><path d="M0 0 C1.67542976 0.28604898 3.34385343 0.61781233 5 1 C5 1.99 5 2.98 5 4 C3.35 4.33 1.7 4.66 0 5 C-0.5625 3.0625 -0.5625 3.0625 -1 1 C-0.67 0.67 -0.34 0.34 0 0 Z " transform="translate(190,38)" style="fill: #EF5047;"/><path d="M0 0 C0.66 0 1.32 0 2 0 C2 0.66 2 1.32 2 2 C3.65 2 5.3 2 7 2 C7 2.66 7 3.32 7 4 C3.7 4 0.4 4 -3 4 C-2.01 2.68 -1.02 1.36 0 0 Z " transform="translate(750,268)" style="fill: #ED3C32;"/><path d="M0 0 C1.32 0 2.64 0 4 0 C3.25 4.75 3.25 4.75 1 7 C-1.625 6.625 -1.625 6.625 -4 6 C-4 5.67 -4 5.34 -4 5 C-3.195625 4.87625 -2.39125 4.7525 -1.5625 4.625 C-0.716875 4.41875 0.12875 4.2125 1 4 C1.33 3.34 1.66 2.68 2 2 C1.34 2 0.68 2 0 2 C0 1.34 0 0.68 0 0 Z " transform="translate(212,139)" style="fill: #BC4548;"/><path d="M0 0 C1.65 0.33 3.3 0.66 5 1 C4.67 2.32 4.34 3.64 4 5 C2.68 4.67 1.36 4.34 0 4 C0 2.68 0 1.36 0 0 Z " transform="translate(88,121)" style="fill: #F59C37;"/><path d="M0 0 C0.33 0.66 0.66 1.32 1 2 C2.65 2 4.3 2 6 2 C6 2.66 6 3.32 6 4 C2.7 4 -0.6 4 -4 4 C-2.68 2.68 -1.36 1.36 0 0 Z " transform="translate(720,268)" style="fill: #ED3F30;"/><path d="M0 0 C0.66 0.33 1.32 0.66 2 1 C1.67 1.99 1.34 2.98 1 4 C-1.97 4 -4.94 4 -8 4 C-8 3.01 -8 2.02 -8 1 C-5.36 1.33 -2.72 1.66 0 2 C0 1.34 0 0.68 0 0 Z " transform="translate(538,233)" style="fill: #F69A32;"/><path d="M0 0 C1.65 0 3.3 0 5 0 C4.67 1.65 4.34 3.3 4 5 C2.68 4.67 1.36 4.34 0 4 C0 2.68 0 1.36 0 0 Z " transform="translate(85,113)" style="fill: #F59529;"/><path d="M0 0 C-2.52788007 2.79872437 -4.20411134 4.45773019 -8 5 C-8 4.34 -8 3.68 -8 3 C-7.34 2.67 -6.68 2.34 -6 2 C-6.33 1.34 -6.66 0.68 -7 0 C-3.86650268 -1.04449911 -3.01031744 -0.93423645 0 0 Z " transform="translate(140,77)" style="fill: #EF554D;"/><path d="M0 0 C1.98 0.495 1.98 0.495 4 1 C3.67 2.32 3.34 3.64 3 5 C1.68 5 0.36 5 -1 5 C-0.67 3.35 -0.34 1.7 0 0 Z " transform="translate(129,170)" style="fill: #EF4E46;"/><path d="M0 0 C2.475 0.495 2.475 0.495 5 1 C4.67 2.32 4.34 3.64 4 5 C2.68 4.67 1.36 4.34 0 4 C0 2.68 0 1.36 0 0 Z " transform="translate(197,44)" style="fill: #B42E32;"/><path d="M0 0 C1.98 0.495 1.98 0.495 4 1 C4 2.32 4 3.64 4 5 C2.35 4.67 0.7 4.34 -1 4 C-0.67 2.68 -0.34 1.36 0 0 Z " transform="translate(126,39)" style="fill: #B02427;"/><path d="M0 0 C1.32 0 2.64 0 4 0 C3.67 1.65 3.34 3.3 3 5 C1.68 4.67 0.36 4.34 -1 4 C-0.67 2.68 -0.34 1.36 0 0 Z " transform="translate(134,37)" style="fill: #EE4A41;"/><path d="M0 0 C1.32 0 2.64 0 4 0 C3.67 1.65 3.34 3.3 3 5 C1.68 4.67 0.36 4.34 -1 4 C-0.67 2.68 -0.34 1.36 0 0 Z " transform="translate(142,36)" style="fill: #D4D6D6;"/><path d="M0 0 C1.98 0.495 1.98 0.495 4 1 C3.67 2.32 3.34 3.64 3 5 C1.68 4.67 0.36 4.34 -1 4 C-0.67 2.68 -0.34 1.36 0 0 Z " transform="translate(138,172)" style="fill: #F59A33;"/><path d="M0 0 C0.625 1.875 0.625 1.875 1 4 C0.34 4.66 -0.32 5.32 -1 6 C-3.625 5.625 -3.625 5.625 -6 5 C-6.33 4.01 -6.66 3.02 -7 2 C-5.02 2.66 -3.04 3.32 -1 4 C-0.67 2.68 -0.34 1.36 0 0 Z " transform="translate(178,140)" style="fill: #C15356;"/><path d="M0 0 C1.32 0 2.64 0 4 0 C4.33 1.65 4.66 3.3 5 5 C3.35 5 1.7 5 0 5 C0 3.35 0 1.7 0 0 Z " transform="translate(80,134)" style="fill: #EE443B;"/><path d="M0 0 C1.98 0.495 1.98 0.495 4 1 C3.67 2.32 3.34 3.64 3 5 C1.68 4.67 0.36 4.34 -1 4 C-0.67 2.68 -0.34 1.36 0 0 Z " transform="translate(92,128)" style="fill: #D2D3D4;"/><path d="M0 0 C1.98 0.495 1.98 0.495 4 1 C3.67 2.32 3.34 3.64 3 5 C1.68 4.67 0.36 4.34 -1 4 C-0.67 2.68 -0.34 1.36 0 0 Z " transform="translate(97,85)" style="fill: #F1625B;"/><path d="M0 0 C1.2065625 0.0309375 1.2065625 0.0309375 2.4375 0.0625 C1.1175 0.3925 -0.2025 0.7225 -1.5625 1.0625 C-1.2325 2.0525 -0.9025 3.0425 -0.5625 4.0625 C-0.8925 4.7225 -1.2225 5.3825 -1.5625 6.0625 C-2.5525 6.0625 -3.5425 6.0625 -4.5625 6.0625 C-3.48963568 0.08511307 -3.48963568 0.08511307 0 0 Z " transform="translate(751.5625,255.9375)" style="fill: #F05C54;"/><path d="M0 0 C0.185625 0.9590625 0.185625 0.9590625 0.375 1.9375 C0.684375 2.9584375 0.684375 2.9584375 1 4 C1.66 4.33 2.32 4.66 3 5 C2.01 6.485 2.01 6.485 1 8 C-0.32 7.34 -1.64 6.68 -3 6 C-2.01 4.02 -1.02 2.04 0 0 Z " transform="translate(161,106)" style="fill: #EF4E46;"/><path d="M0 0 C2.625 0.375 2.625 0.375 5 1 C4.071875 1.4021875 4.071875 1.4021875 3.125 1.8125 C0.7004767 2.95556848 0.7004767 2.95556848 -1 6 C-1.66 6 -2.32 6 -3 6 C-2.42655063 3.13275314 -2.1385485 2.1385485 0 0 Z " transform="translate(97,40)" style="fill: #F05D56;"/><path d="M0 0 C0.33 0.66 0.66 1.32 1 2 C-1.3125 2.6875 -1.3125 2.6875 -4 3 C-5.8125 1.5625 -5.8125 1.5625 -7 0 C-4.30234372 -1.34882814 -2.84835666 -0.80338265 0 0 Z " transform="translate(224,119)" style="fill: #EE453C;"/><path d="M0 0 C2.31 0 4.62 0 7 0 C7 0.99 7 1.98 7 3 C4.69 2.67 2.38 2.34 0 2 C0 1.34 0 0.68 0 0 Z " transform="translate(226,76)" style="fill: #ED3F36;"/><path d="M0 0 C1.32 0 2.64 0 4 0 C4 1.32 4 2.64 4 4 C2.35 4 0.7 4 -1 4 C-0.67 2.68 -0.34 1.36 0 0 Z " transform="translate(204,51)" style="fill: #F59931;"/><path d="M0 0 C3 1 3 1 4.1875 3.0625 C4.455625 3.701875 4.72375 4.34125 5 5 C3.02 5.99 3.02 5.99 1 7 C0.67 4.69 0.34 2.38 0 0 Z " transform="translate(594,256)" style="fill: #EE473E;"/><path d="M0 0 C0.99 0 1.98 0 3 0 C3 1.65 3 3.3 3 5 C1.68 4.67 0.36 4.34 -1 4 C-0.67 2.68 -0.34 1.36 0 0 Z " transform="translate(107,146)" style="fill: #F1625B;"/><path d="M0 0 C1.32 0.33 2.64 0.66 4 1 C3.67 2.32 3.34 3.64 3 5 C2.01 5 1.02 5 0 5 C0 3.35 0 1.7 0 0 Z " transform="translate(96,135)" style="fill: #F59830;"/><path d="M0 0 C0.99 0 1.98 0 3 0 C3 1.65 3 3.3 3 5 C1.68 5 0.36 5 -1 5 C-0.67 3.35 -0.34 1.7 0 0 Z " transform="translate(92,69)" style="fill: #F5962A;"/><path d="M0 0 C1.98 0.495 1.98 0.495 4 1 C4 1.99 4 2.98 4 4 C2.35 4 0.7 4 -1 4 C-0.67 2.68 -0.34 1.36 0 0 Z " transform="translate(158,37)" style="fill: #F69D39;"/><path d="M0 0 C1.32 0 2.64 0 4 0 C3.67 1.65 3.34 3.3 3 5 C2.01 4.67 1.02 4.34 0 4 C0 2.68 0 1.36 0 0 Z " transform="translate(150,36)" style="fill: #F5982E;"/><path d="M0 0 C1.32 0.33 2.64 0.66 4 1 C3.67 2.32 3.34 3.64 3 5 C2.01 4.67 1.02 4.34 0 4 C0 2.68 0 1.36 0 0 Z " transform="translate(101,141)" style="fill: #D2D4D5;"/><path d="M0 0 C1.32 0.66 2.64 1.32 4 2 C2.68 2.99 1.36 3.98 0 5 C-0.99 4.01 -1.98 3.02 -3 2 C-2.01 1.34 -1.02 0.68 0 0 Z " transform="translate(258,77)" style="fill: #EF5148;"/></svg>